<svg width="22" height="21" viewBox="0 0 22 21" fill="none" xmlns="http://www.w3.org/2000/svg">
<path d="M18.9929 5.63887C18.5664 5.8452 18.3879 6.3584 18.5943 6.78467C19.158 7.94912 19.4437 9.20427 19.4437 10.5166C19.4437 15.2475 15.5947 19.0965 10.8638 19.0965C6.13287 19.0965 2.28385 15.2475 2.28385 10.5166C2.28385 5.78571 6.13287 1.93669 10.8638 1.93669C12.8242 1.93669 14.6659 2.57683 16.1902 3.78778C16.5599 4.08292 17.1005 4.02113 17.3957 3.65015C17.6908 3.27939 17.629 2.73938 17.2579 2.44465C15.4533 1.01041 13.1824 0.220703 10.8638 0.220703C5.18691 0.220703 0.567871 4.83974 0.567871 10.5166C0.567871 16.1935 5.18691 20.8125 10.8638 20.8125C16.5406 20.8125 21.1597 16.1935 21.1597 10.5166C21.1597 8.94347 20.8161 7.43592 20.1387 6.03749C19.9328 5.61017 19.4179 5.43212 18.9929 5.63887Z" fill="#FF361B"/>
<path d="M10.8634 3.65259C10.3897 3.65259 10.0054 4.03697 10.0054 4.51058V10.5165C10.0054 10.9901 10.3897 11.3745 10.8634 11.3745H15.1533C15.6269 11.3745 16.0113 10.9901 16.0113 10.5165C16.0113 10.0429 15.6269 9.65853 15.1533 9.65853H11.7214V4.51058C11.7214 4.03697 11.337 3.65259 10.8634 3.65259Z" fill="#FF361B"/>
</svg>
