<svg width="58" height="65" viewBox="0 0 58 65" fill="none" xmlns="http://www.w3.org/2000/svg">
<g filter="url(#filter0_d)">
<path d="M44.6968 15.492C44.6359 15.3128 44.5521 15.148 44.4534 14.9955L42.873 18.4896L43.2404 18.3685C44.4508 17.9695 45.1029 16.6815 44.6968 15.492Z" fill="#DEE278"/>
<path d="M19.5458 17.38C19.5508 17.3587 19.5558 17.3376 19.5607 17.3163C19.5557 17.3378 19.5506 17.3591 19.5458 17.38Z" fill="#DEE278"/>
<path d="M20.4441 13.4947C20.4461 13.4858 20.4481 13.4774 20.45 13.4694C20.4481 13.4774 20.4461 13.4858 20.4441 13.4947Z" fill="#DEE278"/>
<path d="M19.6059 17.1196C20.1141 14.9215 20.3614 13.8514 20.4441 13.4939C20.3231 14.0169 19.8951 15.8684 19.6059 17.1196Z" fill="#DEE278"/>
<path d="M20.4498 13.4687C20.4536 13.4524 20.4569 13.4379 20.4598 13.4251C20.4568 13.438 20.4535 13.4526 20.4498 13.4687Z" fill="#DEE278"/>
<path d="M19.5604 17.3163C19.5754 17.2526 19.5908 17.187 19.6066 17.1196C19.5915 17.1843 19.5761 17.2498 19.5604 17.3163Z" fill="#DEE278"/>
<path d="M20.4718 13.3737C20.4732 13.3677 20.4743 13.363 20.475 13.3594C20.4743 13.363 20.4732 13.3677 20.4718 13.3737Z" fill="#DEE278"/>
<path d="M20.46 13.4246C20.4612 13.4196 20.4623 13.4148 20.4633 13.4103C20.4623 13.4148 20.4612 13.4196 20.46 13.4246Z" fill="#DEE278"/>
<path d="M39.2038 23.3103L31.2557 22.4456L27.2247 14.7665C29.4099 17.1591 32.1888 20.202 32.3418 20.3694L34.2828 20.5804L36.4368 15.8184L33.0193 16.945L33.1915 16.2C33.6133 14.3756 32.4504 12.5607 30.5939 12.1462C30.5939 12.1462 26.757 11.3678 25.0293 10.9037C23.4957 10.4919 20.9982 11.0973 20.4751 13.3605C19.1369 19.1483 19.1872 18.9308 19.5457 17.38C18.9421 19.9908 17.9937 24.0936 16.5569 30.3085L16.5649 30.3103L15.2247 39.926L7.48399 53.024C6.73711 54.2878 7.17405 55.9074 8.46027 56.6416C9.74639 57.3757 11.3943 56.9462 12.1413 55.6821L14.4795 51.7256C14.435 51.517 14.4097 51.3027 14.4097 51.0845C14.4096 49.6956 15.3373 48.516 16.6155 48.1112L20.1488 42.1326C20.3252 41.8341 20.4404 41.5046 20.4881 41.1627L21.8366 31.4877L23.7358 31.9118L26.4324 37.9376C28.5694 33.2128 29.2909 31.6175 30.4201 29.1208C30.1278 29.0891 30.2653 29.104 29.2709 28.9957C27.1483 28.7647 25.8213 27.1567 25.5622 26.1418L23.2637 17.1316C28.0411 26.2328 27.7262 25.6425 27.813 25.7782C28.2008 26.3844 28.835 26.7539 29.515 26.8279C29.516 26.828 38.6946 27.8265 38.6956 27.8265C39.9718 27.9654 41.1077 27.0564 41.2471 25.8183C41.3874 24.5725 40.4742 23.4486 39.2038 23.3103Z" fill="#DEE278"/>
<path d="M20.4752 13.3589C20.4773 13.3492 20.4773 13.3495 20.4752 13.3589V13.3589Z" fill="#DEE278"/>
<path d="M20.4634 13.4094C20.4668 13.3947 20.4694 13.3832 20.4715 13.3743C20.4694 13.3833 20.4667 13.3951 20.4634 13.4094Z" fill="#DEE278"/>
<path d="M33.1866 39.9058L29.5432 47.9613H30.9308C32.0803 47.9613 33.089 48.5641 33.6474 49.4646C33.3219 39.9687 33.1866 39.9058 33.1866 39.9058Z" fill="#DEE278"/>
<path d="M29.9976 10.0289C32.8156 10.0289 35.1 7.78385 35.1 5.01445C35.1 2.24504 32.8156 0 29.9976 0C27.1796 0 24.8952 2.24504 24.8952 5.01445C24.8952 7.78385 27.1796 10.0289 29.9976 10.0289Z" fill="#DEE278"/>
<path d="M42.9388 49.7503C42.1451 49.5097 41.3033 49.9469 41.0585 50.7269C41.0371 50.7951 41.0227 50.8637 41.0117 50.9323C41.0063 50.9305 41.0013 50.9283 40.9959 50.9265C40.3145 50.7198 39.5917 51.0954 39.3814 51.7649C39.2089 52.3147 39.4359 52.8912 39.8997 53.1947C39.4314 53.9534 38.6702 54.6018 38.06 55.0422C37.9397 55.129 37.8921 55.2834 37.9427 55.4215C37.9934 55.5594 38.1302 55.6482 38.2793 55.6398C40.487 55.5137 41.9068 54.8832 41.9068 54.8832L41.9064 54.8825C42.565 54.8707 43.1703 54.4493 43.3752 53.7971C43.5208 53.3331 43.4316 52.8533 43.1746 52.4801C43.5257 52.3053 43.8073 51.9969 43.9325 51.5982C44.1772 50.8181 43.7325 49.9908 42.9388 49.7503Z" fill="#DEE278"/>
<path d="M43.1567 9.41122C42.4787 9.11486 41.685 9.41512 41.3836 10.0814L36.5245 20.8247L39.3267 21.1296L43.8387 11.1539C44.14 10.4875 43.8348 9.70736 43.1567 9.41122Z" fill="#DEE278"/>
<path d="M31.7617 52.388C32.203 52.1157 32.4972 51.6346 32.4972 51.0848C32.4972 50.2346 31.7958 49.5454 30.9308 49.5454H26.4744C26.6274 49.2074 35.129 30.4105 35.4642 29.6696L32.6619 29.3648C32.3679 30.0143 23.898 48.7409 23.5342 49.5454H17.5879C16.7229 49.5454 16.0215 50.2346 16.0215 51.0848C16.0215 51.6681 16.3518 52.1756 16.8386 52.4367L15.657 56.0946C15.5197 56.5197 15.8432 56.9535 16.2965 56.9535H28.3024V53.9516L29.2343 56.9535H32.3197C32.7734 56.9535 33.0963 56.5191 32.9592 56.0946L31.7617 52.388Z" fill="#DEE278"/>
<path d="M50.879 50.7815C50.8991 50.4109 50.7421 50.0717 50.4814 49.8419C50.7085 49.6482 50.8589 49.3683 50.8763 49.0499C50.9101 48.4271 50.4239 47.8952 49.7902 47.8618C49.1565 47.8284 48.6151 48.3063 48.5813 48.9291C48.5783 48.9835 48.5807 49.037 48.5855 49.0898C48.5812 49.0896 48.577 49.0887 48.5727 49.0885C48.0286 49.0599 47.5639 49.4702 47.5347 50.0049C47.5109 50.4438 47.7881 50.8298 48.1893 50.9699C47.9857 51.6178 47.5442 52.2375 47.1753 52.6752C47.1025 52.7616 47.0964 52.8848 47.1601 52.9778C47.2237 53.0708 47.3419 53.1117 47.4509 53.0782C49.0634 52.5814 49.9964 51.8545 49.9964 51.8545L49.996 51.8542C50.4816 51.7252 50.8505 51.3024 50.879 50.7815Z" fill="#DEE278"/>
</g>
<defs>
<filter id="filter0_d" x="-4" y="0" width="66" height="65" filterUnits="userSpaceOnUse" color-interpolation-filters="sRGB">
<feFlood flood-opacity="0" result="BackgroundImageFix"/>
<feColorMatrix in="SourceAlpha" type="matrix" values="0 0 0 0 0 0 0 0 0 0 0 0 0 0 0 0 0 0 127 0"/>
<feOffset dy="4"/>
<feGaussianBlur stdDeviation="2"/>
<feColorMatrix type="matrix" values="0 0 0 0 0 0 0 0 0 0 0 0 0 0 0 0 0 0 0.25 0"/>
<feBlend mode="normal" in2="BackgroundImageFix" result="effect1_dropShadow"/>
<feBlend mode="normal" in="SourceGraphic" in2="effect1_dropShadow" result="shape"/>
</filter>
</defs>
</svg>
