<svg width="66" height="65" viewBox="0 0 66 65" fill="none" xmlns="http://www.w3.org/2000/svg">
<g filter="url(#filter0_d)">
<path d="M48.1245 9.73253C48.1245 8.39525 47.5935 7.13635 46.631 6.19051L41.8254 1.46775C40.8763 0.534932 39.5291 0 38.1883 0H37.8962V10.0195H48.1246L48.1245 9.73253Z" fill="#DEE278"/>
<path d="M35.0319 34.4602C35.3572 33.4898 35.9247 32.5864 36.6648 31.8542L48.1698 20.593V13.3594H36.23C35.2908 13.3594 34.5859 12.6125 34.5859 11.6895V0H9.09766C6.2867 0 4 2.24727 4 5.00977V51.9902C4 54.7527 6.2867 57 9.09766 57H43.0269C45.8378 57 48.1698 54.7527 48.1698 51.9902V39.5269L46.3025 41.3175C45.5459 42.0546 44.6598 42.5911 43.6608 42.919L38.2578 44.6917L37.4347 44.7358C36.074 44.7358 34.7863 44.085 33.9866 42.9957C33.1934 41.9113 32.9777 40.5055 33.4091 39.2351L35.0319 34.4602ZM12.4961 30.0586H29.4331C30.3723 30.0586 31.1323 30.8055 31.1323 31.7285C31.1323 32.6515 30.3723 33.3984 29.4331 33.3984H12.4961C11.5569 33.3984 10.7969 32.6515 10.7969 31.7285C10.7969 30.8055 11.5569 30.0586 12.4961 30.0586ZM10.7969 25.0488C10.7969 24.1258 11.5569 23.3789 12.4961 23.3789H29.4331C30.3723 23.3789 31.1323 24.1258 31.1323 25.0488C31.1323 25.9718 30.3723 26.7188 29.4331 26.7188H12.4961C11.5569 26.7188 10.7969 25.9718 10.7969 25.0488ZM10.7969 38.4082C10.7969 37.4852 11.5569 36.7383 12.4961 36.7383H29.4331C30.3723 36.7383 31.1323 37.4852 31.1323 38.4082C31.1323 39.3312 30.3723 40.0781 29.4331 40.0781H12.4961C11.5569 40.0781 10.7969 39.3312 10.7969 38.4082ZM36.23 46.7578C37.1692 46.7578 37.9292 47.5047 37.9292 48.4277C37.9292 49.3508 37.1693 50.0977 36.23 50.0977H26.0347C25.0955 50.0977 24.3355 49.3508 24.3355 48.4277C24.3355 47.5047 25.0955 46.7578 26.0347 46.7578H36.23ZM12.4961 20.0391C11.5569 20.0391 10.7969 19.2922 10.7969 18.3691C10.7969 17.4461 11.5569 16.6992 12.4961 16.6992H36.23C37.1692 16.6992 37.9292 17.4461 37.9292 18.3691C37.9292 19.2922 37.1692 20.0391 36.23 20.0391H12.4961Z" fill="#DEE278"/>
<path d="M38.1103 35.9376L36.6319 40.2962C36.4104 40.9492 37.0426 41.5703 37.707 41.3522L42.1395 39.8973L38.1103 35.9376Z" fill="#DEE278"/>
<path d="M51.3073 22.1885L40.1163 33.1865L44.9427 37.9296C47.472 35.4434 52.3935 30.6061 56.133 26.9311L51.3073 22.1885Z" fill="#DEE278"/>
<path d="M61.0014 17.3988C60.4041 16.8084 59.5246 16.4709 58.592 16.4709C57.6593 16.4709 56.7799 16.8084 56.1792 17.4005L53.71 19.8271L58.5355 24.5694C59.8873 23.2409 60.8217 22.3226 61.005 22.1426C62.3323 20.8362 62.3322 18.7082 61.0014 17.3988Z" fill="#DEE278"/>
<path d="M61.0048 22.1435C61.0049 22.1435 61.005 22.1434 61.0051 22.1432C61.0093 22.139 61.0112 22.1371 61.0147 22.1336C61.0112 22.1372 61.0093 22.1391 61.0048 22.1435Z" fill="#DEE278"/>
<path d="M61.0147 22.1329C61.02 22.1276 61.0262 22.1214 61.0294 22.1182C61.0261 22.1215 61.02 22.1276 61.0147 22.1329Z" fill="#DEE278"/>
<path d="M61.0307 22.118C61.0414 22.1073 61.0416 22.1071 61.0307 22.118V22.118Z" fill="#DEE278"/>
</g>
<defs>
<filter id="filter0_d" x="0" y="0" width="66" height="65" filterUnits="userSpaceOnUse" color-interpolation-filters="sRGB">
<feFlood flood-opacity="0" result="BackgroundImageFix"/>
<feColorMatrix in="SourceAlpha" type="matrix" values="0 0 0 0 0 0 0 0 0 0 0 0 0 0 0 0 0 0 127 0"/>
<feOffset dy="4"/>
<feGaussianBlur stdDeviation="2"/>
<feColorMatrix type="matrix" values="0 0 0 0 0 0 0 0 0 0 0 0 0 0 0 0 0 0 0.25 0"/>
<feBlend mode="normal" in2="BackgroundImageFix" result="effect1_dropShadow"/>
<feBlend mode="normal" in="SourceGraphic" in2="effect1_dropShadow" result="shape"/>
</filter>
</defs>
</svg>
