<svg width="67" height="57" viewBox="0 0 67 57" fill="none" xmlns="http://www.w3.org/2000/svg">
<g filter="url(#filter0_d)">
<path fill-rule="evenodd" clip-rule="evenodd" d="M46.0605 11.9138C51.1759 13.0606 53.1326 15.9504 55.5858 19.9277H46.0605V11.9138ZM16.1662 20.2617C17.1678 20.2617 17.8947 20.7288 17.8947 21.8203C17.8947 22.7409 17.1237 23.4876 16.1712 23.4902H5.72852C4.77378 23.4902 4 24.2382 4 25.1602C4 26.0825 4.77378 26.8301 5.72852 26.8301H21.2852C22.2489 26.8301 23.0204 27.5772 23.0204 28.5C23.0204 29.4224 22.2466 30.1699 21.2919 30.1699H5.72852C4.77378 30.1699 4 30.9175 4 31.8398C4 32.7622 4.77378 33.5098 5.72852 33.5098H9.53125V38.5195C9.53125 39.4419 10.305 40.1895 11.2598 40.1895H14.7344C15.3537 43.137 18.0496 45.3105 21.2275 45.3105C24.4055 45.3105 27.1013 43.137 27.7207 40.1895H45.2715C45.8908 43.137 48.5867 45.3105 51.7646 45.3105C54.9426 45.3105 57.6385 43.137 58.2578 40.1895H61.2715C62.2262 40.1895 63 39.4419 63 38.5195V28.5C63 23.6003 57.6506 23.275 57.6457 23.2676H44.332C43.3773 23.2676 42.6035 22.52 42.6035 21.5977V11.5781H11.2598C10.305 11.5781 9.53125 12.3257 9.53125 13.248V16.9219H7.45703C6.5023 16.9219 5.72852 17.6694 5.72852 18.5918C5.72852 19.5142 6.5023 20.2617 7.45703 20.2617H16.1662ZM54.0054 36.7444C55.2428 37.9398 55.2428 39.879 54.0054 41.0744C52.0149 42.9974 48.5957 41.6293 48.5957 38.9092C48.5957 36.1895 52.0149 34.8214 54.0054 36.7444ZM23.4683 36.7444C24.7057 37.9398 24.7057 39.879 23.4683 41.0744C21.4778 42.9974 18.0586 41.6293 18.0586 38.9092C18.0586 36.1895 21.4778 34.8214 23.4683 36.7444Z" fill="#DEE278"/>
</g>
<defs>
<filter id="filter0_d" x="0" y="0" width="67" height="65" filterUnits="userSpaceOnUse" color-interpolation-filters="sRGB">
<feFlood flood-opacity="0" result="BackgroundImageFix"/>
<feColorMatrix in="SourceAlpha" type="matrix" values="0 0 0 0 0 0 0 0 0 0 0 0 0 0 0 0 0 0 127 0"/>
<feOffset dy="4"/>
<feGaussianBlur stdDeviation="2"/>
<feColorMatrix type="matrix" values="0 0 0 0 0 0 0 0 0 0 0 0 0 0 0 0 0 0 0.25 0"/>
<feBlend mode="normal" in2="BackgroundImageFix" result="effect1_dropShadow"/>
<feBlend mode="normal" in="SourceGraphic" in2="effect1_dropShadow" result="shape"/>
</filter>
</defs>
</svg>
