<svg width="64" height="64" viewBox="0 0 64 64" fill="none" xmlns="http://www.w3.org/2000/svg">
<g clip-path="url(#clip0)">
<path d="M62.2581 46.9696L53.3267 38.0382C50.1369 34.8484 44.7143 36.1244 43.4383 40.271C42.4814 43.1419 39.2916 44.7368 36.4208 44.0987C30.0413 42.5039 21.4288 34.2104 19.834 27.5119C18.877 24.6409 20.7909 21.4512 23.6617 20.4944C27.8084 19.2184 29.0843 13.7958 25.8945 10.606L16.9632 1.67464C14.4113 -0.558212 10.5836 -0.558212 8.35074 1.67464L2.29015 7.73522C-3.77044 14.1148 2.92811 31.0206 17.9201 46.0126C32.9121 61.0046 49.8179 68.0222 56.1975 61.6426L62.2581 55.582C64.491 53.0301 64.491 49.2024 62.2581 46.9696Z" fill="#DEE278"/>
</g>
<defs>
<clipPath id="clip0">
<rect width="64" height="64" fill="white"/>
</clipPath>
</defs>
</svg>
