<svg width="58" height="65" viewBox="0 0 58 65" fill="none" xmlns="http://www.w3.org/2000/svg">
<g filter="url(#filter0_d)">
<path d="M46.5208 0H11.4792C7.81309 0 4.83334 2.92838 4.83334 6.53125V50.4688C4.83334 54.0716 7.81309 57 11.4792 57H46.5208C50.1869 57 53.1667 54.0716 53.1667 50.4688V6.53125C53.1667 2.92838 50.1869 0 46.5208 0ZM25.9792 30.875V19.1805C31.7792 20.0474 36.25 24.9375 36.25 30.875C36.25 37.4229 30.8294 42.75 24.1667 42.75C21.489 42.75 19.0361 41.8618 17.0303 40.4059L25.4475 32.1338C25.7883 31.8012 25.9792 31.3476 25.9792 30.875ZM22.3542 19.1805V30.1387L14.4686 37.8884C12.9872 35.9171 12.0833 33.5065 12.0833 30.875C12.0833 24.9375 16.5542 20.0474 22.3542 19.1805ZM44.1042 50.4688H13.8958C12.8953 50.4688 12.0833 49.6707 12.0833 48.6875C12.0833 47.7043 12.8953 46.9062 13.8958 46.9062H44.1042C45.1047 46.9062 45.9167 47.7043 45.9167 48.6875C45.9167 49.6707 45.1047 50.4688 44.1042 50.4688ZM44.1042 42.75H40.4792C39.4787 42.75 38.6667 41.952 38.6667 40.9688C38.6667 39.9855 39.4787 39.1875 40.4792 39.1875H44.1042C45.1047 39.1875 45.9167 39.9855 45.9167 40.9688C45.9167 41.952 45.1047 42.75 44.1042 42.75ZM44.1042 36.2188H40.4792C39.4787 36.2188 38.6667 35.4207 38.6667 34.4375C38.6667 33.4543 39.4787 32.6562 40.4792 32.6562H44.1042C45.1047 32.6562 45.9167 33.4543 45.9167 34.4375C45.9167 35.4207 45.1047 36.2188 44.1042 36.2188ZM44.1042 29.0938H40.4792C39.4787 29.0938 38.6667 28.2957 38.6667 27.3125C38.6667 26.3293 39.4787 25.5312 40.4792 25.5312H44.1042C45.1047 25.5312 45.9167 26.3293 45.9167 27.3125C45.9167 28.2957 45.1047 29.0938 44.1042 29.0938ZM44.1042 22.5625H40.4792C39.4787 22.5625 38.6667 21.7645 38.6667 20.7812C38.6667 19.798 39.4787 19 40.4792 19H44.1042C45.1047 19 45.9167 19.798 45.9167 20.7812C45.9167 21.7645 45.1047 22.5625 44.1042 22.5625Z" fill="#DEE278"/>
</g>
<defs>
<filter id="filter0_d" x="-4" y="0" width="66" height="65" filterUnits="userSpaceOnUse" color-interpolation-filters="sRGB">
<feFlood flood-opacity="0" result="BackgroundImageFix"/>
<feColorMatrix in="SourceAlpha" type="matrix" values="0 0 0 0 0 0 0 0 0 0 0 0 0 0 0 0 0 0 127 0"/>
<feOffset dy="4"/>
<feGaussianBlur stdDeviation="2"/>
<feColorMatrix type="matrix" values="0 0 0 0 0 0 0 0 0 0 0 0 0 0 0 0 0 0 0.25 0"/>
<feBlend mode="normal" in2="BackgroundImageFix" result="effect1_dropShadow"/>
<feBlend mode="normal" in="SourceGraphic" in2="effect1_dropShadow" result="shape"/>
</filter>
</defs>
</svg>
