<svg width="64" height="64" viewBox="0 0 64 64" fill="none" xmlns="http://www.w3.org/2000/svg">
<path d="M32.008 0H31.992C14.348 0 0 14.352 0 32C0 39 2.256 45.488 6.092 50.756L2.104 62.644L14.404 58.712C19.464 62.064 25.5 64 32.008 64C49.652 64 64 49.644 64 32C64 14.356 49.652 0 32.008 0ZM50.628 45.188C49.856 47.368 46.792 49.176 44.348 49.704C42.676 50.06 40.492 50.344 33.14 47.296C23.736 43.4 17.68 33.844 17.208 33.224C16.756 32.604 13.408 28.164 13.408 23.572C13.408 18.98 15.74 16.744 16.68 15.784C17.452 14.996 18.728 14.636 19.952 14.636C20.348 14.636 20.704 14.656 21.024 14.672C21.964 14.712 22.436 14.768 23.056 16.252C23.828 18.112 25.708 22.704 25.932 23.176C26.16 23.648 26.388 24.288 26.068 24.908C25.768 25.548 25.504 25.832 25.032 26.376C24.56 26.92 24.112 27.336 23.64 27.92C23.208 28.428 22.72 28.972 23.264 29.912C23.808 30.832 25.688 33.9 28.456 36.364C32.028 39.544 34.924 40.56 35.96 40.992C36.732 41.312 37.652 41.236 38.216 40.636C38.932 39.864 39.816 38.584 40.716 37.324C41.356 36.42 42.164 36.308 43.012 36.628C43.876 36.928 48.448 39.188 49.388 39.656C50.328 40.128 50.948 40.352 51.176 40.748C51.4 41.144 51.4 43.004 50.628 45.188Z" fill="#DEE278"/>
</svg>
