<svg id="Layer_5" enable-background="new 0 0 64 64" height="512" viewBox="0 0 64 64" width="512" xmlns="http://www.w3.org/2000/svg"><g><path d="m51 13h-13v-12h-22v27.026c-.838-.635-1.87-1.026-3-1.026-1.654 0-3 1.346-3 3v18.041c0 2.146.77 4.226 2.167 5.856l3.833 4.473v4.63h22v-4.734l2.814-4.925c.776-1.359 1.186-2.903 1.186-4.466v-1.875h9c1.654 0 3-1.346 3-3v-28c0-1.654-1.346-3-3-3zm-23 8c.552 0 1 .448 1 1h1v1.78c-.532-.48-1.229-.78-2-.78h-2c-.552 0-1-.448-1-1v-1zm2-5v3.78c-.532-.48-1.229-.78-2-.78v-2h-2v2h-3v3c0 1.654 1.346 3 3 3h2c.552 0 1 .448 1 1v1h-3c-.552 0-1-.448-1-1h-2c0 1.654 1.346 3 3 3v2h2v-2h2v3.478c-.96.34-1.964.522-3 .522-4.963 0-9-4.037-9-9s4.037-9 9-9c1.055 0 2.075.183 3.047.534-.024.153-.047.306-.047.466zm2 28v-28c0-.552.448-1 1-1h11v30h-9-2c-.552 0-1-.448-1-1zm14-29h2v30h-2zm-28-12h18v10h-3c-.766 0-1.458.297-1.989.771-1.275-.502-2.618-.771-4.011-.771-3.72 0-7.008 1.861-9 4.695zm9 32c1.028 0 2.03-.151 3-.427v9.427c0 .352.072.686.184 1h-9.184v-1.343c0-1.336-.521-2.592-1.465-3.536l-1.535-1.535v-.586-6-1.695c1.992 2.834 5.28 4.695 9 4.695zm13 13.875c0 1.216-.319 2.418-.922 3.474l-3.078 5.385v3.266h-18v-3.37l-4.314-5.033c-1.087-1.269-1.686-2.887-1.686-4.556v-18.041c0-.552.448-1 1-1 1.654 0 3 1.346 3 3v6 1.414l2.121 2.121c.567.567.879 1.32.879 2.122v3.343h14 2 5zm12-4.875c0 .552-.448 1-1 1h-1v-30h1c.552 0 1 .448 1 1z"/><path d="m34 41h2v2h-2z"/><path d="m34 33h2v2h-2z"/><path d="m34 37h2v2h-2z"/><path d="m38 33h2v10h-2z"/><path d="m22 7h2v-2h-4v4h2z"/><path d="m32 9h2v-4h-4v2h2z"/></g></svg>