<svg width="30" height="30" viewBox="0 0 30 30" fill="none" xmlns="http://www.w3.org/2000/svg">
<g clip-path="url(#clip0)">
<path d="M29.1362 18.1847C31.3088 8.42221 22.7563 -0.446544 12.7125 1.25596C7.26 -2.12779 0 1.69596 0 8.18346C0 9.69221 0.41625 11.1047 1.14 12.3222C-0.87875 22.1072 7.74375 30.8485 17.7787 29.0297C18.9487 29.6485 20.2837 30.001 21.7025 30.001C27.8888 30.001 31.85 23.5847 29.1362 18.1847ZM15.12 24.8497C12.1925 24.8497 9.3325 24.1435 7.64 21.726C5.1175 18.1585 8.44375 16.3735 10.0763 17.7335C11.4388 18.8822 11.0113 21.661 15.0125 21.661C16.7763 21.661 18.9538 20.9085 18.9538 19.1597C18.9538 15.641 11.1475 17.306 8.04375 13.4697C6.90375 12.0647 6.68875 9.58596 8.08875 7.78846C10.5288 4.64846 17.6888 4.45721 20.7675 6.82846C23.61 9.02846 22.8425 11.9485 20.5487 11.9485C17.79 11.9485 19.24 8.33846 14.7863 8.33846C11.5575 8.33846 10.2875 10.6347 12.5612 11.7522C15.5875 13.2547 23.4987 12.786 23.4987 18.756C23.4888 22.9522 19.44 24.8497 15.12 24.8497Z" fill="#03A9F4"/>
</g>
<defs>
<clipPath id="clip0">
<rect width="30" height="30" fill="white"/>
</clipPath>
</defs>
</svg>
