<svg width="30" height="30" viewBox="0 0 30 30" fill="none" xmlns="http://www.w3.org/2000/svg">
<g clip-path="url(#clip0)">
<path d="M0.69693 30C0.528473 30 0.364594 29.9334 0.243058 29.8105C0.0828402 29.6484 0.0210422 29.4131 0.0812381 29.1932L2.03154 22.0713C0.817322 19.8756 0.17714 17.3918 0.178055 14.8705C0.181488 6.67076 6.85431 0 15.0533 0C19.0301 0.00160218 22.7669 1.55067 25.5755 4.36134C28.3836 7.17224 29.9295 10.9087 29.9283 14.8824C29.9247 23.0823 23.2519 29.7535 15.0533 29.7535C15.0533 29.7535 15.0471 29.7535 15.0469 29.7535C12.6521 29.7526 10.2779 29.1689 8.16397 28.0634L0.85875 29.9792C0.805191 29.9931 0.750717 30 0.69693 30Z" fill="#E5E5E5"/>
<path d="M0.696899 29.362L2.71655 21.9867C1.47075 19.8281 0.81546 17.3795 0.816376 14.871C0.81958 7.02333 7.20584 0.638672 15.0533 0.638672C18.8614 0.640274 22.4359 2.12251 25.1239 4.81279C27.8116 7.50307 29.2913 11.0791 29.29 14.8824C29.2865 22.7299 22.8994 29.1155 15.0533 29.1155C15.0528 29.1155 15.0535 29.1155 15.0533 29.1155H15.0471C12.6644 29.1145 10.3234 28.5169 8.24405 27.3828L0.696899 29.362ZM8.59355 24.8063L9.02591 25.0624C10.8423 26.1405 12.9249 26.7106 15.0487 26.7117H15.0533C21.575 26.7117 26.8833 21.4044 26.886 14.8815C26.8872 11.7204 25.6576 8.74795 23.4235 6.51201C21.1891 4.27606 18.2185 3.04399 15.0576 3.04262C8.53061 3.04262 3.22261 8.34924 3.22009 14.8719C3.21918 17.1072 3.84448 19.2838 5.02917 21.1675L5.3107 21.6152L4.11502 25.9805L8.59355 24.8063Z" fill="white"/>
<path d="M1.19202 28.8648L3.14186 21.7445C1.93886 19.6608 1.30646 17.2966 1.30714 14.8753C1.31012 7.2993 7.47551 1.13574 15.0508 1.13574C18.7276 1.13734 22.1784 2.56831 24.7728 5.16544C27.3679 7.76256 28.7961 11.2148 28.7947 14.886C28.7915 22.4623 22.6259 28.6265 15.0515 28.6265C15.0508 28.6265 15.0517 28.6265 15.0515 28.6265H15.0453C12.7453 28.6256 10.4851 28.0484 8.47778 26.9543L1.19202 28.8648Z" fill="#64B161"/>
<path d="M0.696899 29.362L2.71655 21.9867C1.47075 19.8281 0.81546 17.3795 0.816376 14.871C0.81958 7.02333 7.20584 0.638672 15.0533 0.638672C18.8614 0.640274 22.4359 2.12251 25.1239 4.81279C27.8116 7.50307 29.2913 11.0791 29.29 14.8824C29.2865 22.7299 22.8994 29.1155 15.0533 29.1155C15.0528 29.1155 15.0535 29.1155 15.0533 29.1155H15.0471C12.6644 29.1145 10.3234 28.5169 8.24405 27.3828L0.696899 29.362ZM8.59355 24.8063L9.02591 25.0624C10.8423 26.1405 12.9249 26.7106 15.0487 26.7117H15.0533C21.575 26.7117 26.8833 21.4044 26.886 14.8815C26.8872 11.7204 25.6576 8.74795 23.4235 6.51201C21.1891 4.27606 18.2185 3.04399 15.0576 3.04262C8.53061 3.04262 3.22261 8.34924 3.22009 14.8719C3.21918 17.1072 3.84448 19.2838 5.02917 21.1675L5.3107 21.6152L4.11502 25.9805L8.59355 24.8063Z" fill="white"/>
<path fill-rule="evenodd" clip-rule="evenodd" d="M11.495 8.92087C11.2286 8.32853 10.948 8.31662 10.6944 8.30632C10.487 8.2974 10.2497 8.29786 10.0128 8.29786C9.77568 8.29786 9.39024 8.38712 9.06431 8.74303C8.73816 9.09894 7.81897 9.95954 7.81897 11.7098C7.81897 13.4603 9.09384 15.1515 9.27168 15.3891C9.44952 15.6264 11.7326 19.3329 15.3483 20.7589C18.3532 21.944 18.9646 21.7083 19.6169 21.649C20.2692 21.5897 21.7215 20.7884 22.0179 19.9578C22.3145 19.1272 22.3145 18.4153 22.2255 18.2663C22.1364 18.1183 21.8993 18.0292 21.5436 17.8514C21.1879 17.6735 19.4391 16.8127 19.1129 16.6942C18.7868 16.5754 18.5496 16.5163 18.3125 16.8725C18.0752 17.2281 17.394 18.0292 17.1864 18.2663C16.9788 18.5042 16.7712 18.5339 16.4155 18.3558C16.0599 18.1775 14.9141 17.8022 13.555 16.5902C12.4975 15.6475 11.7834 14.4829 11.5758 14.1268C11.3685 13.7711 11.5724 13.5953 11.7322 13.401C12.0199 13.051 12.5026 12.4218 12.6211 12.1847C12.7397 11.9471 12.6804 11.7396 12.5916 11.5615C12.5026 11.3836 11.8111 9.62445 11.495 8.92087Z" fill="white"/>
</g>
<defs>
<clipPath id="clip0">
<rect width="30" height="30" fill="white"/>
</clipPath>
</defs>
</svg>
