<svg width="30" height="30" viewBox="0 0 30 30" fill="none" xmlns="http://www.w3.org/2000/svg">
<g clip-path="url(#clip0)">
<path d="M28.9437 17.3666C29.8387 9.8329 28.5137 5.07665 26.1237 2.9254L26.125 2.92415C22.2675 -0.749603 9.23998 -1.29335 4.62498 3.08915C2.55248 5.2329 1.82248 8.37915 1.74248 12.2741C1.66248 16.1704 1.56748 23.4691 8.36873 25.4491H8.37498L8.36873 28.4729C8.36873 28.4729 8.32248 29.6979 9.10498 29.9441C9.99998 30.2341 10.405 29.6654 13.1887 26.3404C17.8437 26.7441 21.4187 25.8191 21.825 25.6841C22.765 25.3691 28.0837 24.6654 28.9437 17.3666ZM13.6475 24.2129C13.6475 24.2129 10.7012 27.8866 9.78498 28.8404C9.48498 29.1504 9.15623 29.1216 9.16123 28.5066C9.16123 28.1029 9.18373 23.4866 9.18373 23.4866C3.41748 21.8341 3.75748 15.6191 3.81998 12.3679C3.88248 9.1154 4.47748 6.45165 6.23248 4.6579C10.2812 0.861647 21.7025 1.7104 24.6125 4.4454C28.17 7.59915 26.9037 16.5091 26.9112 16.8129C26.18 22.9054 21.87 23.2916 21.0775 23.5554C20.7387 23.6679 17.595 24.4766 13.6475 24.2129Z" fill="#8E24AA"/>
<path d="M15.2776 5.37158C14.7963 5.37158 14.7963 6.12158 15.2776 6.12783C19.0113 6.15658 22.0863 8.75908 22.1201 13.5328C22.1201 14.0366 22.8576 14.0303 22.8513 13.5266H22.8501C22.8101 8.38283 19.4526 5.40033 15.2776 5.37158Z" fill="#8E24AA"/>
<path d="M20.1887 12.7413C20.1774 13.2388 20.9137 13.2625 20.9199 12.7588C20.9812 9.92254 19.2324 7.5863 15.9462 7.34005C15.4649 7.30505 15.4149 8.0613 15.8949 8.0963C18.7449 8.31255 20.2462 10.2575 20.1887 12.7413Z" fill="#8E24AA"/>
<path d="M19.4013 15.9676C18.7838 15.6101 18.155 15.8326 17.895 16.1839L17.3513 16.8876C17.075 17.2451 16.5588 17.1976 16.5588 17.1976C12.7913 16.2014 11.7838 12.2589 11.7838 12.2589C11.7838 12.2589 11.7375 11.7251 12.0825 11.4389L12.7625 10.8764C13.1025 10.6064 13.3175 9.95638 12.9713 9.31763C12.0463 7.64638 11.425 7.07013 11.1088 6.62763C10.7763 6.21138 10.2763 6.11763 9.75627 6.39888H9.74502C8.66377 7.03138 7.48002 8.21513 7.85877 9.43388C8.50502 10.7189 9.69252 14.8151 13.4775 17.9101C15.2563 19.3739 18.0713 20.8739 19.2663 21.2201L19.2775 21.2376C20.455 21.6301 21.6 20.4001 22.2113 19.2864V19.2776C22.4825 18.7389 22.3925 18.2289 21.9963 17.8951C21.2938 17.2101 20.2338 16.4539 19.4013 15.9676Z" fill="#8E24AA"/>
<path d="M16.4612 10.1301C17.6624 10.2001 18.2449 10.8276 18.3074 12.1164C18.3299 12.6201 19.0612 12.5851 19.0387 12.0814C18.9587 10.3988 18.0812 9.46135 16.5012 9.37385C16.0199 9.3451 15.9749 10.1013 16.4612 10.1301Z" fill="#8E24AA"/>
</g>
<defs>
<clipPath id="clip0">
<rect width="30" height="30" fill="white"/>
</clipPath>
</defs>
</svg>
