<svg width="30" height="30" viewBox="0 0 30 30" fill="none" xmlns="http://www.w3.org/2000/svg">
<path d="M15 30C23.2843 30 30 23.2843 30 15C30 6.71573 23.2843 0 15 0C6.71573 0 0 6.71573 0 15C0 23.2843 6.71573 30 15 30Z" fill="#039BE5"/>
<path d="M6.86371 14.6753L21.3262 9.09901C21.9975 8.85651 22.5837 9.26276 22.3662 10.2778L22.3675 10.2765L19.905 21.8778C19.7225 22.7003 19.2337 22.9003 18.55 22.5128L14.8 19.749L12.9912 21.4915C12.7912 21.6915 12.6225 21.8603 12.235 21.8603L12.5012 18.044L19.4512 11.7653C19.7537 11.499 19.3837 11.349 18.985 11.614L10.3962 17.0215L6.69371 15.8665C5.88996 15.6115 5.87246 15.0628 6.86371 14.6753Z" fill="white"/>
</svg>
