<svg width="55" height="55" viewBox="0 0 55 55" fill="none" xmlns="http://www.w3.org/2000/svg">
<g clip-path="url(#clip0)">
<path d="M53.0636 31.8386C54.7044 18.0267 52.2753 9.30694 47.8936 5.36298L47.8959 5.36069C40.8238 -1.37452 16.9401 -2.37139 8.47923 5.66319C4.67964 9.5934 3.34131 15.3615 3.19464 22.5024C3.04798 29.6455 2.87381 43.0265 15.3428 46.6565H15.3542L15.3428 52.2001C15.3428 52.2001 15.258 54.4459 16.6926 54.8974C18.3334 55.429 19.0759 54.3863 24.1794 48.2905C32.7136 49.0307 39.2678 47.3349 40.0126 47.0874C41.7359 46.5099 51.4869 45.2197 53.0636 31.8386ZM25.0205 44.3901C25.0205 44.3901 19.619 51.1253 17.9392 52.8738C17.3892 53.4422 16.7865 53.3895 16.7957 52.262C16.7957 51.5217 16.8369 43.0586 16.8369 43.0586C6.26548 40.029 6.88881 28.6349 7.00339 22.6742C7.11798 16.7113 8.20881 11.8278 11.4263 8.53924C18.849 1.57944 39.788 3.13548 45.123 8.14965C51.6451 13.9315 49.3236 30.2665 49.3374 30.8234C47.9967 41.993 40.0951 42.7011 38.6421 43.1847C38.0211 43.3909 32.2576 44.8736 25.0205 44.3901Z" fill="#8E24AA"/>
<path d="M28.0089 9.84766C27.1266 9.84766 27.1266 11.2227 28.0089 11.2341C34.8541 11.2868 40.4916 16.0581 40.5535 24.8099C40.5535 25.7335 41.9056 25.722 41.8941 24.7985H41.8918C41.8185 15.3683 35.6631 9.90036 28.0089 9.84766Z" fill="#8E24AA"/>
<path d="M37.0127 23.359C36.9921 24.2711 38.3419 24.3147 38.3534 23.3911C38.4657 18.1913 35.2596 13.9082 29.2348 13.4567C28.3525 13.3926 28.2609 14.779 29.1409 14.8432C34.3659 15.2397 37.1182 18.8055 37.0127 23.359Z" fill="#8E24AA"/>
<path d="M35.5689 29.2741C34.4368 28.6187 33.2841 29.0266 32.8074 29.6705L31.8106 30.9607C31.3041 31.6162 30.3577 31.5291 30.3577 31.5291C23.4506 29.7026 21.6035 22.4747 21.6035 22.4747C21.6035 22.4747 21.5187 21.4962 22.1512 20.9714L23.3979 19.9401C24.0212 19.4451 24.4154 18.2534 23.7806 17.0824C22.0847 14.0184 20.9458 12.962 20.366 12.1507C19.7564 11.3876 18.8397 11.2157 17.8864 11.7314H17.8658C15.8835 12.8909 13.7133 15.0612 14.4077 17.2955C15.5925 19.6514 17.7695 27.1612 24.7087 32.8353C27.9697 35.5189 33.1306 38.2689 35.3214 38.9037L35.342 38.9357C37.5008 39.6553 39.5999 37.4003 40.7206 35.3584V35.3424C41.2179 34.3547 41.0529 33.4197 40.3264 32.8078C39.0385 31.552 37.0951 30.1655 35.5689 29.2741Z" fill="#8E24AA"/>
<path d="M30.1788 18.5715C32.3811 18.6999 33.4491 19.8503 33.5636 22.213C33.6049 23.1365 34.9455 23.0724 34.9043 22.1488C34.7576 19.0642 33.1489 17.3455 30.2522 17.1851C29.3699 17.1324 29.2874 18.5188 30.1788 18.5715Z" fill="#8E24AA"/>
</g>
<defs>
<clipPath id="clip0">
<rect width="55" height="55" fill="white"/>
</clipPath>
</defs>
</svg>
