<svg width="55" height="55" viewBox="0 0 55 55" fill="none" xmlns="http://www.w3.org/2000/svg">
<g clip-path="url(#clip0)">
<path d="M1.27771 55C0.968867 55 0.668422 54.8779 0.445606 54.6526C0.151874 54.3555 0.0385773 53.9241 0.148937 53.5209L3.72449 40.4641C1.49842 36.4387 0.324756 31.885 0.326434 27.2625C0.332729 12.2297 12.5662 0 27.5977 0C34.8886 0.00293732 41.7392 2.8429 46.8884 7.9958C52.0366 13.1491 54.8707 19.9994 54.8686 27.2843C54.8619 42.3175 42.6284 54.5481 27.5977 54.5481C27.5977 54.5481 27.5864 54.5481 27.586 54.5481C23.1955 54.5464 18.8429 53.4764 14.9673 51.4496L1.57437 54.9618C1.47618 54.9874 1.37632 55 1.27771 55Z" fill="#E5E5E5"/>
<path d="M1.27771 53.8298L4.98041 40.3085C2.69643 36.3511 1.49507 31.862 1.49675 27.263C1.50262 12.8756 13.2108 1.17041 27.5977 1.17041C34.5793 1.17335 41.1325 3.89079 46.0605 8.82296C50.988 13.7551 53.7008 20.3112 53.6983 27.284C53.692 41.671 41.9822 53.3779 27.5977 53.3779C27.5969 53.3779 27.5982 53.3779 27.5977 53.3779H27.5864C23.2182 53.3762 18.9264 52.2806 15.1142 50.2014L1.27771 53.8298ZM15.7549 45.4777L16.5476 45.9473C19.8776 47.9237 23.6957 48.9689 27.5894 48.971H27.5977C39.5543 48.971 49.2861 39.241 49.2911 27.2823C49.2932 21.487 47.039 16.0374 42.9431 11.9382C38.8468 7.83896 33.4006 5.58016 27.6057 5.57764C15.6395 5.57764 5.90818 15.3065 5.90356 27.2647C5.90189 31.3627 7.04828 35.3532 9.22021 38.8067L9.73634 39.6274L7.54427 47.6304L15.7549 45.4777Z" fill="white"/>
<path d="M2.1853 52.9186L5.76002 39.8647C3.55451 36.0445 2.39511 31.7103 2.39637 27.2712C2.40182 13.3819 13.705 2.08203 27.5931 2.08203C34.3338 2.08497 40.6604 4.70841 45.4167 9.4698C50.1743 14.2312 52.7928 20.5603 52.7902 27.2909C52.7844 41.1807 41.4807 52.4818 27.5944 52.4818C27.5931 52.4818 27.5948 52.4818 27.5944 52.4818H27.583C23.3663 52.4801 19.2226 51.4218 15.5425 49.4161L2.1853 52.9186Z" fill="#64B161"/>
<path d="M1.27771 53.8298L4.98041 40.3085C2.69643 36.3511 1.49507 31.862 1.49675 27.263C1.50262 12.8756 13.2108 1.17041 27.5977 1.17041C34.5793 1.17335 41.1325 3.89079 46.0605 8.82296C50.988 13.7551 53.7008 20.3112 53.6983 27.284C53.692 41.671 41.9822 53.3779 27.5977 53.3779C27.5969 53.3779 27.5982 53.3779 27.5977 53.3779H27.5864C23.2182 53.3762 18.9264 52.2806 15.1142 50.2014L1.27771 53.8298ZM15.7549 45.4777L16.5476 45.9473C19.8776 47.9237 23.6957 48.9689 27.5894 48.971H27.5977C39.5543 48.971 49.2861 39.241 49.2911 27.2823C49.2932 21.487 47.039 16.0374 42.9431 11.9382C38.8468 7.83896 33.4006 5.58016 27.6057 5.57764C15.6395 5.57764 5.90818 15.3065 5.90356 27.2647C5.90189 31.3627 7.04828 35.3532 9.22021 38.8067L9.73634 39.6274L7.54427 47.6304L15.7549 45.4777Z" fill="white"/>
<path fill-rule="evenodd" clip-rule="evenodd" d="M21.0744 16.3546C20.586 15.2686 20.0715 15.2468 19.6066 15.2279C19.2264 15.2116 18.7913 15.2124 18.357 15.2124C17.9223 15.2124 17.2156 15.3761 16.6181 16.0286C16.0201 16.6811 14.335 18.2588 14.335 21.4676C14.335 24.6769 16.6722 27.7774 16.9983 28.213C17.3243 28.6481 21.51 35.4434 28.1387 38.0576C33.6478 40.2304 34.7686 39.7982 35.9645 39.6895C37.1604 39.5808 39.8229 38.1117 40.3663 36.5889C40.9101 35.0662 40.9101 33.7611 40.7469 33.488C40.5836 33.2165 40.1489 33.0533 39.4968 32.7272C38.8448 32.4012 35.6385 30.823 35.0405 30.6056C34.4426 30.3878 34.0078 30.2796 33.5731 30.9325C33.138 31.5846 31.8892 33.0533 31.5086 33.488C31.128 33.924 30.7474 33.9785 30.0953 33.652C29.4433 33.3252 27.3427 32.637 24.851 30.4151C22.9123 28.6867 21.6031 26.5517 21.2225 25.8988C20.8424 25.2467 21.2163 24.9244 21.5091 24.5682C22.0366 23.9266 22.9216 22.7731 23.1389 22.3383C23.3563 21.9028 23.2476 21.5222 23.0848 21.1957C22.9216 20.8697 21.6539 17.6445 21.0744 16.3546Z" fill="white"/>
</g>
<defs>
<clipPath id="clip0">
<rect width="55" height="55" fill="white"/>
</clipPath>
</defs>
</svg>
