<svg width="21" height="22" viewBox="0 0 21 22" fill="none" xmlns="http://www.w3.org/2000/svg">
<path d="M18.8196 5.97163C18.3931 6.17796 18.2146 6.69116 18.4209 7.11744C18.9846 8.28188 19.2703 9.53703 19.2703 10.8494C19.2703 15.5803 15.4213 19.4293 10.6904 19.4293C5.95953 19.4293 2.11051 15.5803 2.11051 10.8494C2.11051 6.11847 5.95953 2.26945 10.6904 2.26945C12.6509 2.26945 14.4925 2.90959 16.0168 4.12054C16.3866 4.41568 16.9272 4.35389 17.2223 3.98292C17.5175 3.61216 17.4557 3.07214 17.0845 2.77742C15.2799 1.34317 13.0091 0.553467 10.6904 0.553467C5.01357 0.553467 0.394531 5.1725 0.394531 10.8494C0.394531 16.5262 5.01357 21.1453 10.6904 21.1453C16.3673 21.1453 20.9863 16.5262 20.9863 10.8494C20.9863 9.27624 20.6428 7.76868 19.9654 6.37025C19.7595 5.94293 19.2446 5.76488 18.8196 5.97163Z" fill="#FF361B"/>
<path d="M10.6903 3.98535C10.2167 3.98535 9.83228 4.36973 9.83228 4.84334V10.8493C9.83228 11.3229 10.2167 11.7073 10.6903 11.7073H14.9802C15.4538 11.7073 15.8382 11.3229 15.8382 10.8493C15.8382 10.3757 15.4538 9.99129 14.9802 9.99129H11.5483V4.84334C11.5483 4.36973 11.1639 3.98535 10.6903 3.98535Z" fill="#FF361B"/>
</svg>
