<svg width="19" height="20" viewBox="0 0 19 20" fill="none" xmlns="http://www.w3.org/2000/svg">
<g clip-path="url(#clip0)">
<path d="M14.2525 9.68203L12.0433 8.27595C11.9015 8.18565 11.7347 7.95468 11.6936 7.79154L11.0833 5.37229C11.0821 5.36727 11.0799 5.36286 11.0785 5.35784C11.0241 5.08132 10.7805 4.87183 10.4881 4.87183H7.51265C7.36697 4.87183 7.23493 4.92601 7.13078 5.01229C7.11714 5.02052 7.10209 5.02774 7.08944 5.03677L4.9704 6.54018C4.72819 6.71195 4.5813 7.07536 4.63588 7.36753L5.29167 10.8708C5.34785 11.1716 5.6328 11.4072 5.94042 11.4072L6.27694 11.3891C6.43888 11.3801 6.58798 11.3044 6.6859 11.1818C6.78383 11.0592 6.82436 10.8971 6.79727 10.7369L6.33975 8.03495C6.31567 7.89328 6.40116 7.6888 6.51875 7.60592L6.91085 7.3302V11.3867L6.83119 13.5932C6.82196 13.8471 6.70176 14.2444 6.56851 14.4609L4.56525 17.7156C4.4605 17.8857 4.43762 18.0804 4.50284 18.2495C4.56806 18.4187 4.71535 18.5477 4.90739 18.6035L5.53447 18.7861C5.60491 18.8066 5.67935 18.817 5.75601 18.817C6.06845 18.817 6.37808 18.6446 6.52617 18.3878L8.43612 15.0812C8.59465 14.8067 8.74294 14.3447 8.77365 14.0293L8.94983 12.2217H9.39592L10.079 13.9703C10.1711 14.2063 10.216 14.6172 10.1769 14.8677L9.63491 18.3322C9.60581 18.5182 9.65036 18.6914 9.76013 18.8198C9.86648 18.9442 10.0224 19.0127 10.1992 19.0127C10.2309 19.0127 10.2634 19.0105 10.2971 19.0058L10.9437 18.9161C11.3189 18.864 11.6498 18.5289 11.6972 18.153L12.1346 14.6803C12.1744 14.365 12.1282 13.8814 12.0297 13.5792L11.0904 10.7024V9.62022L13.4659 10.988C13.5574 11.0405 13.6617 11.0684 13.7679 11.0684C13.9822 11.0684 14.1832 10.9555 14.2926 10.7737L14.4485 10.5142C14.6181 10.2319 14.53 9.85861 14.2525 9.68203Z" fill="#7D7D7D"/>
<path d="M8.79972 4.36156C9.99871 4.36156 10.9742 3.38612 10.9742 2.18713C10.9742 0.98814 9.99871 0.0126953 8.79972 0.0126953C7.60073 0.0126953 6.62549 0.98814 6.62549 2.18713C6.62549 3.38612 7.60093 4.36156 8.79972 4.36156Z" fill="#7D7D7D"/>
</g>
<defs>
<clipPath id="clip0">
<rect width="19" height="19" fill="white" transform="translate(0.000976562 0.0126953)"/>
</clipPath>
</defs>
</svg>
