<svg width="21" height="22" viewBox="0 0 21 22" fill="none" xmlns="http://www.w3.org/2000/svg">
<g clip-path="url(#clip0)">
<path d="M15.2533 21.3494C14.6077 21.3494 13.9676 21.2295 13.3416 20.9907C10.584 19.9389 8.02436 18.2257 5.93929 16.0365C3.85422 13.8472 2.22264 11.1595 1.22093 8.26399C0.899025 7.33347 0.804029 6.37292 0.938672 5.40893C1.0648 4.50596 1.39791 3.62937 1.90203 2.8739C2.40838 2.1151 3.08343 1.48397 3.85418 1.04878C4.6761 0.584703 5.57321 0.349365 6.52067 0.349365C6.81534 0.349365 7.07002 0.56555 7.13178 0.868069L8.11275 5.67486C8.15717 5.89252 8.09346 6.119 7.94358 6.27641L6.26736 8.0364C7.84862 11.3375 10.4145 14.0316 13.5583 15.6919L15.2345 13.9319C15.3844 13.7745 15.6001 13.7077 15.8074 13.7542L20.3853 14.7843C20.6734 14.8491 20.8793 15.1165 20.8793 15.4259C20.8793 16.4208 20.6552 17.3628 20.2132 18.2258C19.7987 19.0351 19.1976 19.7439 18.4749 20.2755C17.7555 20.8049 16.9206 21.1546 16.0606 21.2871C15.7911 21.3286 15.5217 21.3493 15.2533 21.3494ZM6.02132 1.69052C4.77156 1.83538 3.66231 2.52319 2.9257 3.62708C2.09737 4.86836 1.90422 6.39511 2.39576 7.81591C4.32162 13.3826 8.4668 17.735 13.7684 19.7572C15.1215 20.2733 16.5756 20.0705 17.7577 19.2007C18.8091 18.4273 19.4641 17.2626 19.6021 15.9503L15.878 15.1124L14.1274 16.9505C13.9411 17.1461 13.6581 17.1981 13.4198 17.0804C9.70156 15.2463 6.69183 12.0861 4.94503 8.18196C4.83304 7.93165 4.88249 7.63447 5.06878 7.43891L6.81933 5.60083L6.02132 1.69052Z" fill="#FF361B"/>
<path d="M20.2545 11.5052C19.9093 11.5052 19.6295 11.2113 19.6295 10.8489C19.6295 5.78314 15.7044 1.66181 10.8799 1.66181C10.5347 1.66181 10.2549 1.36799 10.2549 1.00559C10.2549 0.643189 10.5347 0.349365 10.8799 0.349365C13.5509 0.349365 16.062 1.44148 17.9507 3.42459C19.8393 5.4077 20.8794 8.04436 20.8794 10.8489C20.8794 11.2113 20.5996 11.5052 20.2545 11.5052Z" fill="#FF361B"/>
<path d="M17.7546 11.505C17.4094 11.505 17.1296 11.2112 17.1296 10.8488C17.1296 7.23039 14.326 4.28657 10.8799 4.28657C10.5347 4.28657 10.2549 3.99274 10.2549 3.63034C10.2549 3.26795 10.5347 2.97412 10.8799 2.97412C15.0152 2.97412 18.3795 6.50669 18.3795 10.8488C18.3795 11.2112 18.0998 11.505 17.7546 11.505Z" fill="#FF361B"/>
<path d="M15.2547 11.5051C14.9095 11.5051 14.6297 11.2113 14.6297 10.8489C14.6297 8.67783 12.9475 6.91157 10.8799 6.91157C10.5347 6.91157 10.2549 6.61774 10.2549 6.25534C10.2549 5.89295 10.5347 5.59912 10.8799 5.59912C13.6368 5.59912 15.8796 7.95414 15.8796 10.8489C15.8796 11.2113 15.5999 11.5051 15.2547 11.5051Z" fill="#FF361B"/>
</g>
<defs>
<clipPath id="clip0">
<rect width="20" height="21" fill="white" transform="translate(0.878906 0.349365)"/>
</clipPath>
</defs>
</svg>
