<svg width="21" height="21" viewBox="0 0 21 21" fill="none" xmlns="http://www.w3.org/2000/svg">
<g clip-path="url(#clip0)">
<path d="M10.8789 0.349609C7.00187 0.349609 3.84766 3.50383 3.84766 7.38086C3.84766 8.69078 4.21051 9.96914 4.89723 11.0782L10.4787 20.0726C10.5856 20.2449 10.7739 20.3496 10.9765 20.3496C10.9781 20.3496 10.9796 20.3496 10.9812 20.3496C11.1855 20.348 11.3743 20.2401 11.4792 20.0648L16.9184 10.9832C17.5672 9.89758 17.9102 8.65191 17.9102 7.38086C17.9102 3.50383 14.7559 0.349609 10.8789 0.349609ZM15.9127 10.3816L10.9677 18.6381L5.89324 10.4608C5.32164 9.53766 5.01172 8.47266 5.01172 7.38086C5.01172 4.15 7.64805 1.51367 10.8789 1.51367C14.1098 1.51367 16.7422 4.15 16.7422 7.38086C16.7422 8.44027 16.4527 9.47805 15.9127 10.3816Z" fill="#FF361B"/>
<path d="M10.8789 3.86523C8.94039 3.86523 7.36328 5.44234 7.36328 7.38086C7.36328 9.30699 8.91473 10.8965 10.8789 10.8965C12.8673 10.8965 14.3945 9.28582 14.3945 7.38086C14.3945 5.44234 12.8174 3.86523 10.8789 3.86523ZM10.8789 9.73242C9.5798 9.73242 8.52734 8.67645 8.52734 7.38086C8.52734 6.08852 9.58656 5.0293 10.8789 5.0293C12.1712 5.0293 13.2266 6.08852 13.2266 7.38086C13.2266 8.65754 12.1986 9.73242 10.8789 9.73242Z" fill="#FF361B"/>
</g>
<defs>
<clipPath id="clip0">
<rect width="20" height="20" fill="white" transform="translate(0.878906 0.349609)"/>
</clipPath>
</defs>
</svg>
