<svg width="20" height="20" viewBox="0 0 20 20" fill="none" xmlns="http://www.w3.org/2000/svg">
<g clip-path="url(#clip0)">
<path d="M18.1006 8.83459C17.8103 8.62118 17.4497 8.3546 17.4023 8.17799C17.3507 7.985 17.5347 7.55983 17.6835 7.21886C17.9378 6.6334 18.2011 6.02751 17.9092 5.52219C17.6141 5.01031 16.9509 4.93592 16.3107 4.86398C15.9452 4.82308 15.4906 4.77241 15.3548 4.63585C15.2182 4.50013 15.1676 4.04548 15.1267 3.67998C15.0547 3.03974 14.9803 2.37743 14.4685 2.08142C14.0237 1.82305 13.3646 2.04873 12.7718 2.3071C12.4439 2.44938 12.1021 2.5851 11.8118 2.58839C11.6352 2.54178 11.3695 2.18039 11.1552 1.89009C10.7865 1.38971 10.3687 0.822266 9.76524 0.822266C9.1626 0.822266 8.74398 1.38971 8.37519 1.88932C8.16097 2.17958 7.8952 2.54102 7.645 2.59659C7.42503 2.59659 7.08652 2.44941 6.75866 2.30714C6.16422 2.04877 5.50437 1.82555 5.06282 2.08146C4.55015 2.37747 4.47575 3.03978 4.40377 3.68002C4.36372 4.04552 4.31221 4.49932 4.17645 4.63589C4.03988 4.77245 3.58527 4.82312 3.22058 4.86401C2.57954 4.93596 1.91638 5.0112 1.62122 5.52223C1.32931 6.02674 1.59259 6.63263 1.8469 7.2189C1.99572 7.55987 2.1805 7.98504 2.12899 8.17803C2.08158 8.35464 1.72014 8.62122 1.43069 8.83463C0.92951 9.20338 0.362061 9.622 0.362061 10.2254C0.362061 10.8289 0.92951 11.2475 1.42992 11.6163C1.72018 11.8297 2.08077 12.0963 2.12822 12.2729C2.17974 12.4659 1.99576 12.8911 1.84693 13.232C1.59263 13.8175 1.32935 14.4234 1.62126 14.9287C1.91642 15.4406 2.57958 15.515 3.21981 15.5869C3.58531 15.6278 4.03992 15.6785 4.17568 15.815C4.31224 15.9508 4.36291 16.4054 4.40381 16.7709C4.47575 17.4111 4.55019 18.0735 5.06202 18.3695C5.50521 18.627 6.16423 18.4022 6.7587 18.1438C7.08659 18.0015 7.42181 17.8576 7.71863 17.8625C7.89524 17.9091 8.16097 18.2705 8.37523 18.5608C8.74398 19.0612 9.16184 19.6287 9.76528 19.6287C10.3679 19.6287 10.7865 19.0612 11.1545 18.5616C11.3687 18.2713 11.6345 17.9099 11.8847 17.8543C12.1054 17.8543 12.444 18.0015 12.771 18.1438C13.3663 18.403 14.0253 18.6262 14.4668 18.3703C14.9795 18.0743 15.0539 17.4119 15.1259 16.7709C15.166 16.4054 15.2175 15.9516 15.3532 15.815C15.4898 15.6785 15.9444 15.6278 16.3091 15.5869C16.9501 15.515 17.6133 15.4397 17.9085 14.9287C18.2012 14.4242 17.9379 13.8183 17.6828 13.232C17.5339 12.8911 17.35 12.4667 17.4015 12.2729C17.4489 12.0963 17.8103 11.8297 18.0998 11.6163C18.601 11.2475 19.1685 10.8289 19.1685 10.2254C19.1685 9.622 18.601 9.20338 18.1006 8.83459ZM17.6165 10.9564C17.1823 11.2761 16.7334 11.6065 16.6124 12.0595C16.4873 12.5288 16.7146 13.0513 16.9346 13.5566C17.0752 13.8804 17.2878 14.3694 17.2028 14.5174C17.1136 14.6719 16.5764 14.7325 16.2199 14.7725C15.677 14.8338 15.1152 14.8968 14.7767 15.2353C14.4382 15.5738 14.3752 16.1356 14.3148 16.6785C14.2747 17.0342 14.2142 17.5722 14.0588 17.6613C14.0351 17.6753 13.9959 17.6785 13.9673 17.6785C13.7547 17.6785 13.4211 17.533 13.0981 17.3932C12.5911 17.1732 12.0368 16.9541 11.6018 17.0718C11.148 17.1928 10.8176 17.6417 10.4971 18.0759C10.2813 18.3686 9.955 18.811 9.76531 18.811C9.57563 18.811 9.24854 18.3687 9.03351 18.0759C8.71382 17.6425 8.38347 17.1936 7.92966 17.0726C7.84055 17.0489 7.74488 17.0366 7.64431 17.0366C7.25428 17.0366 6.83646 17.2182 6.43252 17.3948C6.11037 17.5346 5.77676 17.6801 5.56335 17.6801C5.53472 17.6801 5.49547 17.6769 5.47179 17.663C5.31644 17.573 5.25673 17.0358 5.21667 16.6801C5.15535 16.1372 5.09238 15.5754 4.75386 15.2369C4.41615 14.8984 3.85361 14.8354 3.31069 14.7741C2.95581 14.7341 2.41779 14.6735 2.32868 14.519C2.24283 14.3718 2.45624 13.882 2.59686 13.5582C2.81683 13.0529 3.04412 12.5304 2.91901 12.0611C2.79717 11.6081 2.34827 11.2778 1.91493 10.958C1.62222 10.7414 1.17983 10.4151 1.17983 10.2254C1.17983 10.0357 1.62218 9.70947 1.91493 9.49276C2.34911 9.17306 2.79801 8.84271 2.91901 8.38971C3.04412 7.92038 2.81679 7.39789 2.59686 6.89257C2.45704 6.56878 2.24363 6.07982 2.32868 5.9318C2.41864 5.77726 2.95585 5.71674 3.31153 5.67749C3.85445 5.61617 4.41619 5.55319 4.7547 5.21468C5.09322 4.87616 5.15619 4.31443 5.21752 3.77151C5.25677 3.41582 5.31729 2.87861 5.47263 2.78866C5.49636 2.77474 5.5356 2.77149 5.5642 2.77149C5.7768 2.77149 6.11041 2.91702 6.43256 3.05768C6.93953 3.27765 7.49306 3.49758 7.92889 3.37903C8.3827 3.25802 8.71305 2.80912 9.03355 2.37494C9.24942 2.08223 9.57567 1.63984 9.76535 1.63984C9.95504 1.63984 10.2821 2.08219 10.498 2.3741C10.8177 2.80748 11.148 3.25638 11.6018 3.37738C12.0336 3.49267 12.5912 3.2768 13.0982 3.05603C13.4203 2.91621 13.7539 2.77068 13.9674 2.77068C13.996 2.77068 14.0352 2.77394 14.0589 2.78785C14.2143 2.87781 14.274 3.41502 14.314 3.7707C14.3754 4.31362 14.4383 4.87536 14.7768 5.21387C15.1146 5.55239 15.6771 5.61536 16.22 5.67669C16.5749 5.71674 17.1129 5.77726 17.202 5.9318C17.2879 6.07898 17.0745 6.56878 16.9338 6.89257C16.7139 7.39789 16.4866 7.92038 16.6117 8.38971C16.7335 8.84271 17.1824 9.17303 17.6158 9.49276C17.9085 9.70943 18.3509 10.0357 18.3509 10.2254C18.3509 10.4151 17.9084 10.7414 17.6165 10.9564Z" fill="#C4C4C4"/>
<path d="M7.31229 8.18124C7.08662 8.18124 6.90345 8.36441 6.90345 8.59009V10.6342L5.18634 8.34478C5.08086 8.20416 4.89608 8.14609 4.73008 8.20251C4.56328 8.25812 4.45044 8.41427 4.45044 8.59009V11.8608C4.45044 12.0864 4.63361 12.2696 4.85929 12.2696C5.08496 12.2696 5.26813 12.0864 5.26813 11.8608V9.81659L6.98524 12.1061C7.06374 12.2107 7.18639 12.2696 7.31229 12.2696C7.35564 12.2696 7.39895 12.263 7.4415 12.2483C7.6083 12.1927 7.72114 12.0366 7.72114 11.8608V8.59009C7.72114 8.36441 7.53797 8.18124 7.31229 8.18124Z" fill="#C4C4C4"/>
<path d="M10.583 11.4518H9.35651V8.99881H10.583C10.8087 8.99881 10.9919 8.81564 10.9919 8.58996C10.9919 8.36428 10.8087 8.18115 10.583 8.18115H8.94766C8.72199 8.18115 8.53882 8.36432 8.53882 8.59V11.8607C8.53882 12.0863 8.72199 12.2695 8.94766 12.2695H10.583C10.8087 12.2695 10.9919 12.0863 10.9919 11.8607C10.9919 11.635 10.8087 11.4518 10.583 11.4518Z" fill="#C4C4C4"/>
<path d="M10.583 9.81689H8.94766C8.72199 9.81689 8.53882 10.0001 8.53882 10.2257C8.53882 10.4514 8.72199 10.6346 8.94766 10.6346H10.583C10.8087 10.6346 10.9919 10.4514 10.9919 10.2257C10.9919 10 10.8087 9.81689 10.583 9.81689Z" fill="#C4C4C4"/>
<path d="M15.5869 8.19378C15.3661 8.13901 15.1454 8.27147 15.0914 8.4914L14.6147 10.3998L14.241 9.27881C14.1298 8.9452 13.5771 8.9452 13.4651 9.27881L13.0914 10.3998L12.6147 8.4914C12.56 8.27143 12.3343 8.13817 12.1192 8.19378C11.9001 8.24855 11.7676 8.47017 11.8216 8.68929L12.6393 11.9599C12.6834 12.1358 12.8388 12.2625 13.0203 12.269C13.2255 12.2772 13.367 12.1619 13.4242 11.9902L13.8535 10.7007L14.2828 11.9902C14.3392 12.1578 14.4954 12.2698 14.6712 12.2698C14.6761 12.2698 14.6818 12.2698 14.6859 12.269C14.8674 12.2625 15.0227 12.1366 15.0669 11.9599L15.8846 8.68929C15.9393 8.47017 15.8068 8.24855 15.5869 8.19378Z" fill="#C4C4C4"/>
</g>
<defs>
<clipPath id="clip0">
<rect width="18.8064" height="18.8064" fill="white" transform="translate(0.362061 0.822266)"/>
</clipPath>
</defs>
</svg>
