<svg width="18" height="17" viewBox="0 0 18 17" fill="none" xmlns="http://www.w3.org/2000/svg">
<path d="M15.0964 1.42529H11.473C11.1811 1.42529 10.9579 1.64859 10.9579 1.9406C10.9579 2.23261 11.1811 2.4559 11.473 2.4559H15.0964C16.058 2.4559 16.8308 3.22886 16.8308 4.19077V14.1362C16.8308 15.0981 16.058 15.871 15.0964 15.871H4.84456C3.88292 15.871 3.11017 15.0981 3.11017 14.1362C3.11017 13.8442 2.88693 13.6209 2.595 13.6209C2.30307 13.6209 2.07983 13.8442 2.07983 14.1362V14.2049C2.07983 14.2221 2.07983 14.2392 2.07983 14.2564C2.14852 15.7164 3.36775 16.8845 4.84456 16.8845H15.0964C16.6247 16.8845 17.8611 15.6477 17.8611 14.119V4.20794C17.8611 2.6792 16.6247 1.42529 15.0964 1.42529Z" fill="#C4C4C4"/>
<path d="M2.4232 8.21054C2.54341 8.33078 2.6121 8.51972 2.57775 8.69149L2.14845 11.1821C2.04541 11.7662 2.28582 12.3673 2.76665 12.7109C3.24747 13.0544 3.88284 13.1059 4.41518 12.8311L6.64757 11.6631C6.80212 11.5772 6.99101 11.5772 7.14556 11.6631L9.37794 12.8311C9.60118 12.9514 9.85876 13.0201 10.1163 13.0201C10.4426 13.0201 10.7689 12.917 11.0437 12.7109C11.5245 12.3502 11.7649 11.7662 11.6618 11.1821L11.2325 8.69149C11.1982 8.51972 11.2669 8.34796 11.3871 8.21054L13.1902 6.4585C13.6195 6.04626 13.774 5.42789 13.5851 4.86105C13.3962 4.29422 12.9154 3.88197 12.3144 3.79609L9.82442 3.43537C9.6527 3.4182 9.49815 3.29796 9.42946 3.14337L8.31327 0.87602C8.05568 0.343537 7.50618 0 6.90515 0C6.30412 0 5.77178 0.32636 5.49703 0.87602L4.38083 3.14337C4.29497 3.29796 4.1576 3.4182 3.98587 3.43537L1.4959 3.79609C0.894877 3.88197 0.414056 4.29422 0.225162 4.86105C0.0362679 5.42789 0.190816 6.04626 0.620121 6.4585L2.4232 8.21054ZM1.20397 5.17024C1.27266 4.96411 1.42721 4.84387 1.63328 4.80952L4.12325 4.44881C4.63842 4.3801 5.06772 4.05374 5.30813 3.58996L6.42432 1.32262C6.51018 1.13367 6.69908 1.03061 6.90515 1.03061C7.11122 1.03061 7.30011 1.15085 7.38597 1.32262L8.50216 3.58996C8.7254 4.05374 9.17188 4.3801 9.68704 4.44881L12.177 4.80952C12.3831 4.84387 12.5376 4.98129 12.6063 5.17024C12.675 5.37636 12.6235 5.58248 12.4689 5.7199L10.6659 7.47193C10.2881 7.83265 10.1335 8.34796 10.2194 8.86326L10.6487 11.3539C10.683 11.56 10.5972 11.749 10.4426 11.8864C10.2709 12.0066 10.0648 12.0238 9.87594 11.9207L7.64355 10.7527C7.1799 10.5122 6.64756 10.5122 6.18391 10.7527L3.95153 11.9207C3.76263 12.0238 3.55657 12.0066 3.38485 11.8864C3.21312 11.7662 3.14443 11.56 3.17878 11.3539L3.60808 8.86326C3.69394 8.34796 3.52222 7.83265 3.16161 7.47193L1.35852 5.7199C1.20397 5.58248 1.15246 5.37636 1.20397 5.17024Z" fill="#C4C4C4"/>
</svg>
