<svg width="18" height="18" viewBox="0 0 18 18" fill="none" xmlns="http://www.w3.org/2000/svg">
<path d="M6.05299 12.4862C9.31571 12.4862 11.9774 9.82381 11.9774 6.56021C11.9774 3.2966 9.31571 0.651367 6.05299 0.651367C2.79027 0.651367 0.145752 3.31378 0.145752 6.57738C0.145752 9.84099 2.79027 12.4862 6.05299 12.4862ZM6.05299 1.76786C8.69751 1.76786 10.844 3.91497 10.844 6.56021C10.844 9.20545 8.69751 11.3526 6.05299 11.3526C3.40847 11.3526 1.26195 9.20545 1.26195 6.56021C1.26195 3.93215 3.40847 1.76786 6.05299 1.76786Z" fill="#C4C4C4"/>
<path d="M11.0329 11.5591C10.8097 11.7824 10.8097 12.1259 11.0329 12.3492L13.54 14.857C13.6431 14.9601 13.7976 15.0288 13.935 15.0288C14.0724 15.0288 14.2269 14.9773 14.33 14.857C14.5532 14.6337 14.5532 14.2902 14.33 14.0669L11.8228 11.5591C11.5996 11.3358 11.2561 11.3358 11.0329 11.5591Z" fill="#C4C4C4"/>
<path d="M14.8795 2.52393H12.9734C12.6814 2.52393 12.4582 2.74723 12.4582 3.03923C12.4582 3.33124 12.6814 3.55454 12.9734 3.55454H14.8795C15.8411 3.55454 16.6139 4.3275 16.6139 5.2894V15.2348C16.6139 16.1967 15.8411 16.9697 14.8795 16.9697H4.64485C3.68321 16.9697 2.91046 16.1967 2.91046 15.2348V13.2423C2.91046 12.9503 2.68722 12.727 2.39529 12.727C2.10337 12.727 1.88013 12.9503 1.88013 13.2423V15.2348C1.88013 16.7635 3.11653 18.0003 4.64485 18.0003H14.8967C16.425 18.0003 17.6614 16.7635 17.6614 15.2348V5.30658C17.6442 3.77784 16.4078 2.52393 14.8795 2.52393Z" fill="#C4C4C4"/>
</svg>
