<svg width="20" height="21" viewBox="0 0 20 21" fill="none" xmlns="http://www.w3.org/2000/svg">
<path d="M16.9712 20.0449H2.92159C2.6967 20.0449 2.52178 19.8637 2.52178 19.6451V17.721H0.766363C0.635175 17.721 0.510234 17.6585 0.43527 17.5461C0.360305 17.4399 0.341564 17.3024 0.385294 17.1775L1.2099 14.9473L0.516481 13.0982C0.472752 12.9732 0.485246 12.8358 0.560211 12.7296C0.635175 12.6234 0.760116 12.5547 0.891303 12.5547H5.08306C5.25173 12.5547 5.40791 12.6609 5.46413 12.8233C5.52035 12.9857 5.47038 13.1606 5.33919 13.2731L4.0648 14.3039H15.803L14.4848 13.2793C14.3474 13.1731 14.2974 12.992 14.3537 12.8296C14.4099 12.6671 14.5598 12.5609 14.7347 12.5609H19.1326C19.2638 12.5609 19.3825 12.6234 19.4575 12.7296C19.5324 12.8358 19.5512 12.9732 19.5075 13.0919L18.7891 15.1909L19.7448 17.3274C19.8011 17.4524 19.7886 17.596 19.7136 17.7085C19.6386 17.8209 19.5137 17.8897 19.3763 17.8897H17.3647V19.6388C17.371 19.87 17.1961 20.0449 16.9712 20.0449ZM3.32765 19.2453H16.5714V17.4961C16.5714 17.2712 16.7525 17.0963 16.9712 17.0963H18.7641L17.9957 15.3783C17.952 15.2846 17.952 15.1784 17.9832 15.0847L18.5704 13.3668H15.9029L17.221 14.3913C17.3585 14.4975 17.4085 14.6787 17.3522 14.8411C17.296 15.0035 17.1461 15.1097 16.9712 15.1097H2.92159C2.75292 15.1097 2.59674 15.0035 2.54052 14.8411C2.4843 14.6787 2.53427 14.5038 2.66546 14.3913L3.93986 13.3606H1.47228L2.02202 14.8099C2.0595 14.9036 2.0595 15.0035 2.02202 15.091L1.34734 16.9214H2.92784C3.15273 16.9214 3.32765 17.1025 3.32765 17.3212V19.2453Z" fill="#C4C4C4"/>
<path d="M2.92129 20.0444C2.6964 20.0444 2.52148 19.8632 2.52148 19.6446V14.953C2.52148 14.7281 2.70265 14.5532 2.92129 14.5532C3.13994 14.5532 3.32111 14.7344 3.32111 14.953V19.6446C3.32735 19.8694 3.14619 20.0444 2.92129 20.0444Z" fill="#C4C4C4"/>
<path d="M16.9277 20.0444C16.7028 20.0444 16.5278 19.8632 16.5278 19.6446V14.953C16.5278 14.7281 16.709 14.5532 16.9277 14.5532C17.1525 14.5532 17.3275 14.7344 17.3275 14.953V19.6446C17.3337 19.8694 17.1525 20.0444 16.9277 20.0444Z" fill="#C4C4C4"/>
<path d="M11.1805 12.5856C9.93107 12.5856 8.94404 11.7735 8.90031 11.736C6.67637 9.34341 8.2756 7.06324 8.29435 7.03825C9.10021 6.10744 9.98104 5.63892 10.9368 5.60768C12.4986 5.56395 13.6356 6.69466 13.6793 6.74464C13.8355 6.90082 13.8355 7.15695 13.6793 7.31312C13.5231 7.4693 13.267 7.4693 13.1108 7.31312C13.1046 7.30687 12.1363 6.36357 10.9556 6.41355C10.2309 6.43854 9.55 6.81961 8.91905 7.53801C8.89406 7.58174 7.71962 9.28718 9.45005 11.155C9.45629 11.155 10.3684 11.8797 11.3929 11.7735C11.9301 11.7173 12.4236 11.4362 12.8484 10.9302V10.0931H10.8744C10.6495 10.0931 10.4746 9.91189 10.4746 9.69324C10.4746 9.4746 10.6557 9.29343 10.8744 9.29343H13.2545C13.4794 9.29343 13.6543 9.4746 13.6543 9.69324V11.0801C13.6543 11.1675 13.6231 11.2612 13.5668 11.33C12.9734 12.0796 12.2675 12.4982 11.4678 12.5794C11.3679 12.5794 11.2742 12.5856 11.1805 12.5856Z" fill="#C4C4C4"/>
<path d="M6.44498 11.9363C6.22008 11.9363 6.04517 11.7551 6.04517 11.5365V9.16885C6.04517 8.94396 6.22633 8.76904 6.44498 8.76904C6.66362 8.76904 6.84478 8.95021 6.84478 9.16885V11.5365C6.84478 11.7551 6.66362 11.9363 6.44498 11.9363Z" fill="#C4C4C4"/>
<path d="M16.9275 12.8979C16.7525 12.8979 16.5901 12.7855 16.5401 12.6043L15.8842 10.3179C15.7905 10.1243 15.803 9.82441 15.9529 9.58702L17.0649 7.81286L14.9222 6.48849C14.6473 6.31982 14.5036 5.98248 14.5598 5.64514L14.9659 3.47742L12.3734 4.15835C12.0798 4.23331 11.7737 4.11462 11.5987 3.85225L9.94328 1.4284L8.40651 3.7398C8.24408 3.98343 7.96922 4.11462 7.6881 4.06464L4.64579 3.56488L5.41418 5.95125C5.52663 6.32607 5.3642 6.72588 5.02686 6.89455L3.05905 7.91282L4.3272 9.79317C4.47712 10.0181 4.50211 10.3179 4.40216 10.5678L3.89615 12.5981C3.83993 12.8167 3.62128 12.9417 3.40888 12.8917C3.19024 12.8355 3.0653 12.6168 3.11527 12.4044L3.63378 10.3179L2.40936 8.36885C2.27817 8.17519 2.24069 7.93156 2.30316 7.70042C2.35938 7.48177 2.50306 7.30061 2.69672 7.20065L4.66454 6.18239L3.95237 3.78353C3.87116 3.50866 3.93988 3.21505 4.12104 3.0089C4.28971 2.82148 4.53335 2.72778 4.77698 2.77151L7.81929 3.27127L9.33732 0.891151C9.47475 0.684999 9.69964 0.560059 9.94328 0.560059C9.94328 0.560059 9.94328 0.560059 9.94952 0.560059C10.1869 0.560059 10.4118 0.678752 10.5492 0.884904L12.2672 3.39621L14.8659 2.69654C15.1033 2.63407 15.3532 2.70279 15.5344 2.87771C15.7343 3.06512 15.8217 3.35248 15.7655 3.62735L15.3595 5.79507L17.5022 7.1132C17.6771 7.2194 17.802 7.39431 17.852 7.60671C17.902 7.82536 17.8645 8.0565 17.7458 8.23766L16.6338 10.0118L17.3148 12.3857C17.3772 12.5981 17.2523 12.823 17.0399 12.8855C17.0024 12.8979 16.9649 12.8979 16.9275 12.8979Z" fill="#C4C4C4"/>
<path d="M6.45128 8.42502C6.66519 8.42502 6.8386 8.25162 6.8386 8.03771C6.8386 7.8238 6.66519 7.65039 6.45128 7.65039C6.23737 7.65039 6.06396 7.8238 6.06396 8.03771C6.06396 8.25162 6.23737 8.42502 6.45128 8.42502Z" fill="#C4C4C4"/>
</svg>
