<svg width="17" height="22" viewBox="0 0 17 22" fill="none" xmlns="http://www.w3.org/2000/svg">
<path d="M13.9503 6.12496H2.22919C2.10238 6.11257 1.97673 6.16075 1.88171 6.25813C1.78829 6.36133 1.74502 6.51071 1.7659 6.6577L2.97043 18.7242C3.11169 20.0546 4.09821 21.0515 5.26368 21.0416H11.1011C12.2994 21.0612 13.3087 20.0166 13.4175 18.6443L14.4136 6.60442C14.4197 6.47528 14.3776 6.34924 14.2978 6.25813C14.2028 6.16075 14.0771 6.11257 13.9503 6.12496ZM12.491 18.591C12.4182 19.4022 11.8097 20.0086 11.1011 19.9761H5.26372C4.56788 20.0086 3.96976 19.4141 3.89701 18.6176L2.73881 7.19044H13.4407L12.491 18.591Z" fill="black"/>
<path d="M15.6406 2.66226H10.8688V1.80985C10.8945 0.986547 10.3349 0.295194 9.61898 0.265623C9.59548 0.264654 9.57194 0.264399 9.54844 0.264909H6.62972C5.91339 0.249665 5.32201 0.905023 5.30876 1.72873C5.30831 1.75575 5.30853 1.78283 5.30938 1.80985V2.66221H0.537506C0.281632 2.66221 0.0742188 2.90072 0.0742188 3.19495C0.0742188 3.48918 0.281632 3.72769 0.537506 3.72769H15.6406C15.8965 3.72769 16.1039 3.48918 16.1039 3.19495C16.1039 2.90072 15.8965 2.66226 15.6406 2.66226ZM9.9422 1.80985V2.66221H6.23591V1.80985C6.20979 1.57639 6.35322 1.36281 6.55625 1.33278C6.58059 1.32916 6.6052 1.3284 6.62967 1.33039H9.54839C9.75257 1.31377 9.92983 1.49058 9.94429 1.72542C9.94606 1.75356 9.94535 1.78186 9.9422 1.80985Z" fill="black"/>
<path d="M6.0542 9.94092L6.7511 17.4456M10.0573 9.94092L9.35958 17.4456" stroke="black" stroke-linecap="round" stroke-linejoin="round"/>
</svg>
