<svg width="25" height="24" viewBox="0 0 25 24" fill="none" xmlns="http://www.w3.org/2000/svg">
<path d="M11.699 2.39739C12.0461 1.59143 13.1889 1.59143 13.536 2.39739L15.5523 7.07958C15.6971 7.41575 16.014 7.64597 16.3784 7.67977L21.4545 8.15057C22.3283 8.23161 22.6814 9.31842 22.0222 9.89757L18.1922 13.2621C17.9172 13.5037 17.7962 13.8762 17.8767 14.2333L18.9975 19.2064C19.1905 20.0625 18.266 20.7341 17.5114 20.2861L13.1281 17.6833C12.8133 17.4965 12.4217 17.4965 12.1069 17.6833L7.72355 20.2861C6.96902 20.7341 6.04452 20.0625 6.23746 19.2064L7.35831 14.2333C7.43879 13.8762 7.31775 13.5037 7.04277 13.2621L3.21283 9.89757C2.55357 9.31842 2.9067 8.23161 3.78047 8.15057L8.85658 7.67977C9.22104 7.64597 9.53791 7.41575 9.68269 7.07958L11.699 2.39739Z" stroke="black"/>
<path d="M10.1914 11.7246L14.9038 11.7246" stroke="black" stroke-linecap="round" stroke-linejoin="round"/>
<path d="M12.5479 9.36816V14.0806" stroke="black" stroke-linecap="round" stroke-linejoin="round"/>
</svg>
