<svg width="18" height="21" viewBox="0 0 18 21" fill="none" xmlns="http://www.w3.org/2000/svg">
<path d="M12.4173 5.61853C12.2866 6.75972 11.9753 7.97457 11.3889 8.88803C10.8182 9.77691 10.0028 10.3659 8.79279 10.3659C7.58276 10.366 6.76751 9.7771 6.19685 8.88819C5.61039 7.97468 5.29913 6.75972 5.16831 5.61848C5.01213 4.25571 5.2655 3.13899 5.84653 2.37618C6.4154 1.62934 7.36331 1.13635 8.79282 1.13635C10.2225 1.13635 11.1704 1.62938 11.7391 2.37621C12.3201 3.13904 12.5734 4.25578 12.4173 5.61853Z" stroke="#FF361B" stroke-width="1.11743"/>
<path d="M8.79327 11.9102C7.4674 11.9102 6.32855 11.4091 5.45526 10.4512C5.19648 10.588 4.92076 10.708 4.61298 10.829C3.98058 11.0775 3.26526 11.2127 2.71288 11.625C1.75763 12.338 1.51076 13.9419 1.31679 15.036C1.15672 15.9391 1.04918 16.8608 1.01779 17.7782C0.993472 18.4887 1.34431 18.5884 1.93878 18.8029C2.68313 19.0713 3.45169 19.2706 4.22542 19.434C5.71967 19.7496 7.25992 19.992 8.79354 20.0029" stroke="#FF361B" stroke-width="1.11743"/>
<path d="M8.79343 11.9102C10.123 11.9102 11.265 11.4091 12.1408 10.4512C12.4003 10.588 12.6767 10.708 12.9854 10.829C13.6195 11.0775 14.3369 11.2127 14.8908 11.625C15.8487 12.338 16.0963 13.9419 16.2908 15.036C16.4513 15.9391 16.5591 16.8608 16.5906 17.7782C16.615 18.4887 16.2632 18.5884 15.667 18.8029C14.9206 19.0713 14.1499 19.2706 13.374 19.434C11.8756 19.7496 10.3311 19.992 8.79316 20.0029" stroke="#FF361B" stroke-width="1.11743"/>
</svg>
