<svg width="21" height="21" viewBox="0 0 21 21" fill="none" xmlns="http://www.w3.org/2000/svg">
<path d="M19.6306 16.1081L17.5242 14.7037L15.6517 13.4556C15.2904 13.2152 14.8047 13.294 14.5379 13.6365L13.3793 15.126C13.1304 15.4492 12.6827 15.5421 12.3258 15.3445C11.5396 14.9072 10.6099 14.4954 8.55856 12.4414C6.50725 10.3875 6.09286 9.46044 5.65553 8.67425C5.45792 8.31734 5.55081 7.86962 5.87403 7.62076L7.36354 6.46211C7.70595 6.19537 7.78481 5.70973 7.54438 5.34832L6.33462 3.53351L4.89194 1.36946C4.64639 1.00111 4.15484 0.890529 3.77522 1.11819L2.1114 2.11635C1.66175 2.38127 1.33122 2.80906 1.18827 3.31104C0.73328 4.96992 0.641546 8.62935 6.50625 14.4941C12.371 20.3588 16.0301 20.2667 17.6889 19.8117C18.1909 19.6688 18.6187 19.3383 18.8836 18.8886L19.8818 17.2248C20.1095 16.8451 19.9989 16.3536 19.6306 16.1081Z" stroke="black"/>
</svg>
