<svg width="22" height="19" viewBox="0 0 22 19" fill="none" xmlns="http://www.w3.org/2000/svg">
<path d="M17.4595 14.1367C16.2613 14.1367 15.2856 15.1124 15.2856 16.3106C15.2856 17.5089 16.2613 18.4846 17.4595 18.4846C18.6578 18.4846 19.6334 17.5089 19.6334 16.3106C19.6334 15.1123 18.6578 14.1367 17.4595 14.1367ZM17.4595 17.615C16.7404 17.615 16.1552 17.0298 16.1552 16.3106C16.1552 15.5915 16.7404 15.0063 17.4595 15.0063C18.1787 15.0063 18.7639 15.5915 18.7639 16.3106C18.7639 17.0298 18.1787 17.615 17.4595 17.615Z" fill="black" stroke="black" stroke-width="0.2"/>
<path d="M7.45955 14.1367C6.2613 14.1367 5.28564 15.1124 5.28564 16.3106C5.28564 17.5089 6.2613 18.4846 7.45955 18.4846C8.6578 18.4846 9.63345 17.5089 9.63345 16.3107C9.63345 15.1124 8.65784 14.1367 7.45955 14.1367ZM7.45955 17.615C6.7404 17.615 6.1552 17.0298 6.1552 16.3106C6.1552 15.5915 6.7404 15.0063 7.45955 15.0063C8.17869 15.0063 8.7639 15.5915 8.7639 16.3106C8.7639 17.0298 8.17869 17.615 7.45955 17.615Z" fill="black" stroke="black" stroke-width="0.2"/>
<path d="M17.4286 14.0435H8.79043C7.75824 14.0435 6.86175 13.3087 6.65912 12.2957L4.46957 1.34957C4.42869 1.14609 4.25044 1 4.0435 1H1.4348C1.1948 1 1 1.1948 1 1.4348C1 1.6748 1.1948 1.86959 1.4348 1.86959H3.68696L5.80608 12.467C6.08957 13.8844 7.34521 14.9131 8.79043 14.9131H17.4286C17.6686 14.9131 17.8634 14.7183 17.8634 14.4783C17.8634 14.2383 17.6686 14.0435 17.4286 14.0435Z" fill="black" stroke="black" stroke-width="0.2"/>
<path d="M20.8916 3.75583C20.809 3.66277 20.6907 3.60889 20.5655 3.60889H4.91331C4.67331 3.60889 4.47852 3.80368 4.47852 4.04368C4.47852 4.28368 4.67331 4.47844 4.91331 4.47844H20.0733L19.4551 9.42278C19.3733 10.0741 18.8168 10.5654 18.1603 10.5654H6.21766C5.97766 10.5654 5.78287 10.7602 5.78287 11.0002C5.78287 11.2402 5.97766 11.435 6.21766 11.435H18.1603C19.2542 11.435 20.182 10.6167 20.3177 9.53063L20.9968 4.09757C21.0124 3.97406 20.9742 3.84885 20.8916 3.75583Z" fill="black" stroke="black" stroke-width="0.2"/>
</svg>
