<svg width="37" height="37" viewBox="0 0 37 37" fill="none" xmlns="http://www.w3.org/2000/svg">
<rect x="0.5" y="0.5" width="36" height="36" rx="6.5" fill="white" stroke="#EF772B"/>
<path d="M18.6667 18.5909C19.837 18.5909 20.8502 18.1676 21.6783 17.3324C22.5061 16.4974 22.926 15.4757 22.926 14.2953C22.926 13.1154 22.5063 12.0935 21.6782 11.2582C20.8501 10.4233 19.8368 10 18.6667 10C17.4963 10 16.4833 10.4233 15.6553 11.2583C14.8273 12.0934 14.4075 13.1152 14.4075 14.2953C14.4075 15.4757 14.8273 16.4975 15.6553 17.3326C16.4835 18.1675 17.4967 18.5909 18.6667 18.5909ZM16.3882 11.9973C17.0235 11.3566 17.7687 11.0451 18.6667 11.0451C19.5646 11.0451 20.31 11.3566 20.9454 11.9973C21.5808 12.6382 21.8897 13.3899 21.8897 14.2953C21.8897 15.201 21.5808 15.9526 20.9454 16.5935C20.31 17.2343 19.5646 17.5458 18.6667 17.5458C17.769 17.5458 17.0237 17.2342 16.3882 16.5935C15.7527 15.9527 15.4438 15.201 15.4438 14.2953C15.4438 13.3899 15.7527 12.6382 16.3882 11.9973Z" fill="#C4C4C4"/>
<path d="M26.2962 23.7946C26.2714 23.44 26.2212 23.0531 26.1473 22.6446C26.0727 22.233 25.9766 21.8439 25.8616 21.4883C25.7427 21.1207 25.5813 20.7577 25.3815 20.4099C25.1744 20.0489 24.931 19.7345 24.6579 19.4758C24.3723 19.2051 24.0226 18.9875 23.6182 18.8288C23.2152 18.6709 22.7686 18.591 22.2909 18.591C22.1033 18.591 21.9218 18.6672 21.5714 18.8931C21.3558 19.0324 21.1035 19.1935 20.8219 19.3716C20.5812 19.5236 20.255 19.6659 19.8522 19.7947C19.4592 19.9207 19.0601 19.9846 18.6661 19.9846C18.2724 19.9846 17.8733 19.9207 17.48 19.7947C17.0776 19.666 16.7513 19.5237 16.511 19.3718C16.2321 19.1953 15.9797 19.0342 15.7608 18.893C15.4107 18.6671 15.2292 18.5908 15.0416 18.5908C14.5638 18.5908 14.1173 18.6709 13.7145 18.829C13.3104 18.9874 12.9605 19.205 12.6746 19.4759C12.4015 19.7348 12.1581 20.049 11.9511 20.4099C11.7516 20.7577 11.59 21.1206 11.4711 21.4884C11.3563 21.8441 11.2602 22.233 11.1856 22.6446C11.1116 23.0526 11.0616 23.4396 11.0367 23.7951C11.0123 24.1426 11 24.5044 11 24.8698C11 25.8199 11.305 26.5891 11.9064 27.1563C12.5003 27.7161 13.2861 27.9999 14.242 27.9999H23.0914C24.0469 27.9999 24.8327 27.7161 25.4268 27.1563C26.0284 26.5895 26.3333 25.8201 26.3333 24.8697C26.3332 24.503 26.3207 24.1412 26.2962 23.7946ZM24.6842 26.3836C24.2918 26.7535 23.7707 26.9333 23.0912 26.9333H14.242C13.5623 26.9333 13.0413 26.7535 12.649 26.3837C12.2641 26.0209 12.077 25.5255 12.077 24.8698C12.077 24.5288 12.0884 24.1921 12.1111 23.8688C12.1332 23.5516 12.1785 23.2032 12.2457 22.833C12.312 22.4674 12.3964 22.1243 12.4968 21.8136C12.5932 21.5158 12.7245 21.2208 12.8875 20.9367C13.043 20.666 13.2219 20.4336 13.4193 20.2465C13.604 20.0714 13.8367 19.9281 14.111 19.8206C14.3647 19.7211 14.6497 19.6667 14.9592 19.6585C14.9969 19.6784 15.0641 19.7163 15.1729 19.7866C15.3943 19.9294 15.6495 20.0925 15.9316 20.2709C16.2496 20.4717 16.6593 20.653 17.1488 20.8095C17.6492 20.9698 18.1596 21.0512 18.6662 21.0512C19.1729 21.0512 19.6834 20.9698 20.1835 20.8097C20.6735 20.6529 21.083 20.4717 21.4015 20.2706C21.6902 20.0879 21.9382 19.9296 22.1596 19.7866C22.2684 19.7164 22.3356 19.6784 22.3733 19.6585C22.6829 19.6667 22.968 19.7211 23.2218 19.8206C23.4959 19.9281 23.7287 20.0715 23.9133 20.2465C24.1107 20.4335 24.2897 20.6658 24.4452 20.9369C24.6082 21.2208 24.7398 21.5159 24.836 21.8135C24.9365 22.1246 25.021 22.4675 25.0872 22.8329C25.1542 23.2038 25.1997 23.5523 25.2218 23.8689V23.8692C25.2447 24.1912 25.2562 24.5278 25.2563 24.8698C25.2562 25.5257 25.0691 26.0209 24.6842 26.3836Z" fill="#C4C4C4"/>
</svg>
