<svg width="16" height="15" viewBox="0 0 16 15" fill="none" xmlns="http://www.w3.org/2000/svg">
<path d="M1.10181 2.84033C0.790426 2.84033 0.526951 2.93581 0.31138 3.15062C0.0958095 3.36544 0 3.628 0 3.93829C0 4.24858 0.0958095 4.51114 0.31138 4.72596C0.526951 4.94078 0.790426 5.03625 1.10181 5.03625C1.41319 5.03625 1.67666 4.94078 1.89223 4.72596C2.1078 4.51114 2.20361 4.24858 2.20361 3.93829C2.20361 3.628 2.1078 3.36544 1.89223 3.15062C1.67666 2.95968 1.41319 2.84033 1.10181 2.84033Z" fill="#EF7B2B"/>
<path d="M1.10186 5.72852C0.838389 5.72852 0.622819 5.82399 0.4312 5.99107C0.239582 6.18202 0.167725 6.39684 0.167725 6.65939V11.457C0.167725 11.7196 0.263534 11.9344 0.4312 12.1253C0.622819 12.3163 0.838389 12.3879 1.10186 12.3879C1.36534 12.3879 1.58091 12.2924 1.77253 12.1253C1.96415 11.9344 2.05996 11.7196 2.05996 11.457V6.65939C2.05996 6.39684 1.96415 6.18202 1.77253 5.99107C1.58091 5.82399 1.36534 5.72852 1.10186 5.72852Z" fill="#EF7B2B"/>
<path d="M9.65255 8.09148C9.65255 9.14171 10.5148 9.97711 11.5448 9.97711H12.455C13.3173 9.97711 14.0358 10.6932 14.0358 11.5524C13.1735 12.1253 12.2154 12.4117 11.1376 12.4117C9.6765 12.4117 8.43098 11.9105 7.40103 10.8841C6.37109 9.85777 5.86809 8.6166 5.86809 7.16061C5.86809 5.70462 6.37109 4.46344 7.40103 3.46096C8.43098 2.43461 9.6765 1.90949 11.1376 1.90949C11.7604 1.90949 12.3352 2.00497 12.8861 2.19592C13.437 2.38687 13.94 2.64942 14.3951 3.00745C14.5867 3.17453 14.8023 3.27001 15.0418 3.27001C15.1616 3.27001 15.3053 3.24614 15.4251 3.1984C15.5448 3.15067 15.6406 3.07906 15.7364 3.00745C15.8322 2.91198 15.8801 2.8165 15.9281 2.69716C15.976 2.57782 15.9999 2.45847 15.9999 2.31526C15.9999 2.02884 15.9281 1.81402 15.7604 1.67081C14.3951 0.54898 12.8622 0 11.1615 0C9.1735 0 7.49684 0.692192 6.08366 2.10044C4.71838 3.43709 3.9519 5.25111 3.9519 7.16061C3.9519 9.14171 4.64652 10.8364 6.05971 12.2208C7.44894 13.6051 9.14955 14.2973 11.1376 14.3212C13.964 14.3212 15.952 12.5072 15.952 12.5072V11.6718C15.952 9.69069 14.3472 8.11535 12.3831 8.11535L9.65255 8.09148Z" fill="#EF7B2B"/>
</svg>
