<svg width="21" height="21" viewBox="0 0 21 21" fill="none" xmlns="http://www.w3.org/2000/svg">
<g clip-path="url(#clip0)">
<path d="M10.8037 0.0957031C6.92668 0.0957031 3.77246 3.24992 3.77246 7.12695C3.77246 8.43688 4.13531 9.71523 4.82203 10.8243L10.4035 19.8187C10.5104 19.991 10.6987 20.0957 10.9013 20.0957C10.9029 20.0957 10.9044 20.0957 10.906 20.0957C11.1103 20.0941 11.2991 19.9862 11.404 19.8109L16.8432 10.7293C17.492 9.64367 17.835 8.39801 17.835 7.12695C17.835 3.24992 14.6807 0.0957031 10.8037 0.0957031ZM15.8375 10.1277L10.8925 18.3842L5.81805 10.2069C5.24645 9.28375 4.93652 8.21875 4.93652 7.12695C4.93652 3.89609 7.57285 1.25977 10.8037 1.25977C14.0346 1.25977 16.667 3.89609 16.667 7.12695C16.667 8.18637 16.3775 9.22414 15.8375 10.1277Z" fill="#FF361B"/>
<path d="M10.8037 3.61133C8.8652 3.61133 7.28809 5.18844 7.28809 7.12695C7.28809 9.05309 8.83953 10.6426 10.8037 10.6426C12.7921 10.6426 14.3193 9.03191 14.3193 7.12695C14.3193 5.18844 12.7422 3.61133 10.8037 3.61133ZM10.8037 9.47852C9.50461 9.47852 8.45215 8.42254 8.45215 7.12695C8.45215 5.83461 9.51137 4.77539 10.8037 4.77539C12.0961 4.77539 13.1514 5.83461 13.1514 7.12695C13.1514 8.40363 12.1234 9.47852 10.8037 9.47852Z" fill="#FF361B"/>
</g>
<defs>
<clipPath id="clip0">
<rect width="20" height="20" fill="white" transform="translate(0.803711 0.0957031)"/>
</clipPath>
</defs>
</svg>
