<svg width="89" height="23" viewBox="0 0 89 23" fill="none" xmlns="http://www.w3.org/2000/svg">
<path d="M2.58545 16.8906V5.17338H0.632574V16.8906H2.58545ZM2.87838 1.43851C2.87838 0.632954 2.29252 0.193557 1.60901 0.193557C0.925505 0.193557 0.339643 0.632954 0.339643 1.43851C0.339643 2.26848 0.925505 2.68347 1.60901 2.68347C2.29252 2.68347 2.87838 2.26848 2.87838 1.43851ZM5.45182 11.032C5.45182 14.5472 7.96615 17.1836 11.3104 17.1836C13.5562 17.1836 14.9965 16.1339 15.8509 15.0842V16.8906C15.8753 19.7955 13.6539 20.7476 11.164 20.7476C9.55286 20.7476 8.03938 20.3326 6.64796 19.5514V21.4555C8.03938 22.1634 9.67491 22.554 11.4081 22.554C14.6547 22.554 17.8037 20.9184 17.8037 16.8906V5.17338H16.0462V7.12626C14.9965 5.93012 13.5562 4.88045 11.3104 4.88045C7.96615 4.88045 5.45182 7.51683 5.45182 11.032ZM15.8509 9.56735V12.7408C15.1918 14.1078 13.6295 15.3771 11.5301 15.3771C9.25993 15.3771 7.4047 13.7172 7.4047 11.032C7.4047 8.3468 9.25993 6.68686 11.5301 6.68686C13.6295 6.68686 15.1918 8.05387 15.8509 9.56735Z" fill="#FF361B"/>
<path d="M21.1747 9.9091V11.7643H29.8894V9.9091H21.1747ZM32.5832 8.24916C32.5832 12.4478 40.053 11.4714 40.053 13.9369C40.053 15.1086 38.7348 15.3771 37.0748 15.3771C35.6102 15.3771 33.8282 14.9378 32.632 14.1322V16.0362C33.7305 16.7442 35.5125 17.1836 37.1725 17.1836C39.7112 17.1836 42.0058 16.3292 42.0058 13.8881C42.0058 9.66499 34.5605 10.7391 34.5605 8.20034C34.5605 7.05302 35.9031 6.63804 37.1725 6.63804C38.5883 6.63804 40.2238 7.10185 41.2003 7.73653V5.8813C40.1018 5.29544 38.6127 4.88045 37.0504 4.88045C34.8534 4.88045 32.5832 5.83248 32.5832 8.24916ZM45.419 1.53616V5.17338H43.222V6.97979H45.419V13.3755C45.419 15.9386 47.0301 17.1591 49.3003 17.1591C50.4232 17.1591 51.5705 16.9394 52.4493 16.6221V14.8157C51.6682 15.133 50.7894 15.3527 49.8618 15.3527C48.153 15.3527 47.3474 14.8157 47.3474 13.0337V6.97979H52.0343V5.17338H47.3474V1.04794L45.419 1.53616ZM53.8446 11.032C53.8446 15.0354 56.9203 17.1836 60.0938 17.1836C63.2916 17.1836 66.3429 15.0354 66.3429 11.032C66.3429 7.02861 63.2916 4.88045 60.0938 4.88045C56.9203 4.88045 53.8446 7.02861 53.8446 11.032ZM64.3901 11.032C64.3901 13.7416 62.486 15.3283 60.0938 15.3283C57.7015 15.3283 55.7974 13.7416 55.7974 11.032C55.7974 8.32239 57.7015 6.73568 60.0938 6.73568C62.486 6.73568 64.3901 8.32239 64.3901 11.032ZM70.9017 7.24831V5.17338H69.1441V16.8906H71.097V9.59176C71.8049 7.71212 73.6601 6.61363 75.9547 6.88215V4.92928C73.9042 4.7584 71.8293 5.71042 70.9017 7.24831ZM76.849 11.032C76.849 15.2063 79.8759 17.1836 83.3423 17.1836C84.8802 17.1836 86.4181 16.8906 87.4921 16.3292V14.4251C86.4913 14.9866 85.0755 15.3771 83.6352 15.3771C81.2674 15.3771 79.046 14.3519 78.8019 11.8864H88.1268C88.8592 8.5665 87.1992 4.88045 82.6832 4.88045C79.9003 4.88045 76.849 6.93097 76.849 11.032ZM86.3937 10.1776H78.8019C78.9483 7.883 80.8036 6.68686 82.8052 6.68686C85.7834 6.68686 86.5645 8.93267 86.3937 10.1776Z" fill="black"/>
</svg>
