<svg width="30" height="30" viewBox="0 0 30 30" fill="none" xmlns="http://www.w3.org/2000/svg">
<path d="M13.7431 0.945417C14.5364 0.0747081 15.9067 0.0747084 16.7 0.945417L17.5801 1.91144C18.1063 2.48905 18.9208 2.70728 19.6653 2.47018L20.9106 2.07365C22.0329 1.71625 23.2196 2.40135 23.4712 3.55206L23.7505 4.82872C23.9174 5.59207 24.5136 6.18829 25.277 6.35523L26.5536 6.63445C27.7043 6.88611 28.3894 8.07274 28.032 9.19512L27.6355 10.4403C27.3984 11.1849 27.6166 11.9993 28.1943 12.5256L29.1603 13.4057C30.031 14.199 30.031 15.5692 29.1603 16.3625L28.1943 17.2427C27.6166 17.7689 27.3984 18.5834 27.6355 19.3279L28.032 20.5732C28.3894 21.6955 27.7043 22.8822 26.5536 23.1338L25.277 23.4131C24.5136 23.58 23.9174 24.1762 23.7505 24.9396L23.4712 26.2162C23.2196 27.3669 22.0329 28.052 20.9106 27.6946L19.6653 27.2981C18.9208 27.061 18.1063 27.2792 17.5801 27.8569L16.7 28.8229C15.9067 29.6936 14.5364 29.6936 13.7431 28.8229L12.863 27.8568C12.3367 27.2792 11.5223 27.061 10.7778 27.2981L9.53252 27.6946C8.41015 28.052 7.22351 27.3669 6.97185 26.2162L6.69264 24.9396C6.52569 24.1762 5.92947 23.58 5.16612 23.4131L3.88946 23.1338C2.73875 22.8822 2.05365 21.6955 2.41105 20.5732L2.80758 19.3279C3.04468 18.5834 2.82645 17.7689 2.24884 17.2427L1.28282 16.3625C0.41211 15.5692 0.412111 14.199 1.28282 13.4057L2.24884 12.5256C2.82645 11.9993 3.04468 11.1849 2.80758 10.4403L2.41105 9.19512C2.05365 8.07274 2.73875 6.88611 3.88946 6.63445L5.16613 6.35523C5.92947 6.18829 6.52569 5.59207 6.69264 4.82872L6.97185 3.55205C7.22351 2.40135 8.41015 1.71625 9.53252 2.07365L10.7778 2.47018C11.5223 2.70728 12.3368 2.48904 12.863 1.91144L13.7431 0.945417Z" fill="#FF361B"/>
</svg>
