<svg width="17" height="17" viewBox="0 0 17 17" fill="none" xmlns="http://www.w3.org/2000/svg">
<path d="M7.00585 14.001C3.14281 14.001 0 10.8606 0 7.00051C0 3.14041 3.14281 0 7.00585 0C10.8689 0 14.0117 3.14041 14.0117 7.00051C14.0117 10.8606 10.8689 14.001 7.00585 14.001ZM7.00585 1.32711C3.87513 1.32711 1.32812 3.87218 1.32812 7.00051C1.32812 10.1288 3.87513 12.6739 7.00585 12.6739C10.1366 12.6739 12.6836 10.1288 12.6836 7.00051C12.6836 3.87218 10.1366 1.32711 7.00585 1.32711ZM16.8055 16.8057C17.0648 16.5465 17.0648 16.1264 16.8055 15.8672L13.8338 12.8978C13.5745 12.6387 13.154 12.6387 12.8947 12.8978C12.6354 13.157 12.6354 13.5771 12.8947 13.8363L15.8664 16.8057C15.996 16.9352 16.166 17 16.336 17C16.5059 17 16.6758 16.9352 16.8055 16.8057Z" fill="black"/>
</svg>
