<svg width="25" height="25" viewBox="0 0 25 25" fill="none" xmlns="http://www.w3.org/2000/svg">
<path d="M11.699 2.98235C12.0461 2.17639 13.1889 2.17639 13.536 2.98235L15.5523 7.66454C15.6971 8.00071 16.014 8.23093 16.3784 8.26474L21.4545 8.73553C22.3283 8.81657 22.6814 9.90338 22.0222 10.4825L18.1922 13.8471C17.9172 14.0887 17.7962 14.4612 17.8767 14.8182L18.9975 19.7914C19.1905 20.6474 18.266 21.3191 17.5114 20.8711L13.1281 18.2683C12.8133 18.0814 12.4217 18.0814 12.1069 18.2683L7.72355 20.8711C6.96902 21.3191 6.04452 20.6474 6.23746 19.7914L7.35831 14.8182C7.43879 14.4612 7.31775 14.0887 7.04277 13.8471L3.21283 10.4825C2.55357 9.90338 2.9067 8.81657 3.78047 8.73553L8.85658 8.26474C9.22104 8.23093 9.53791 8.00071 9.68269 7.66454L11.699 2.98235Z" fill="#FF361B"/>
</svg>
