<svg width="38" height="37" viewBox="0 0 38 37" fill="none" xmlns="http://www.w3.org/2000/svg">
<path d="M37.9832 21.7942C37.9832 20.8462 37.6061 19.9627 36.9562 19.3112C37.6929 18.5051 38.0683 17.4244 37.9658 16.2997C37.7812 14.2946 35.9749 12.7233 33.8516 12.7233H24.1071C24.5898 11.2578 25.3628 8.57127 25.3628 6.41318C25.3628 2.99149 22.4554 0.103027 20.6301 0.103027C18.9926 0.103027 17.8205 1.02589 17.7716 1.06375C17.5839 1.21364 17.475 1.44081 17.475 1.68055V7.02998L12.9301 16.8723L12.7424 16.9685V16.6672C12.7424 16.2318 12.389 15.8784 11.9536 15.8784H4.06591C1.89052 15.8785 0.12207 17.6469 0.12207 19.8223V32.4427C0.12207 34.6181 1.89052 36.3865 4.06591 36.3865H8.79854C10.5038 36.3865 11.9615 35.298 12.5105 33.7788C13.823 34.454 15.5899 34.809 16.6863 34.809H31.1666C32.8846 34.809 34.388 33.6511 34.7413 32.0546C34.9227 31.2311 34.817 30.4029 34.4573 29.6836C35.6216 29.0983 36.4056 27.8946 36.4056 26.5269C36.4056 25.9684 36.2779 25.4336 36.0365 24.9509C37.2007 24.3641 37.9832 23.162 37.9832 21.7942ZM34.6561 23.7409C34.3517 23.7772 34.0945 23.9838 33.9967 24.2757C33.9005 24.5676 33.981 24.8878 34.205 25.0992C34.6057 25.4762 34.8281 25.9842 34.8281 26.5269C34.8281 27.5223 34.0756 28.3584 33.0802 28.4736C32.7758 28.5099 32.5186 28.7165 32.4208 29.0083C32.3246 29.3002 32.4051 29.6204 32.6291 29.8318C33.1481 30.3208 33.3563 31.0071 33.2002 31.7139C33.0061 32.5941 32.1511 33.2315 31.1667 33.2315H16.6863C15.4053 33.2315 13.2567 32.6304 12.5121 31.8842C12.2865 31.6602 11.9457 31.594 11.6523 31.7139C11.3573 31.8354 11.1649 32.124 11.1649 32.4427C11.1649 33.7473 10.1032 34.809 8.79854 34.809H4.06591C2.76125 34.809 1.69959 33.7473 1.69959 32.4427V19.8223C1.69959 18.5176 2.76125 17.456 4.06591 17.456H11.1649V18.2448C11.1649 18.5177 11.3068 18.7716 11.5403 18.9168C11.7706 19.0556 12.0609 19.0698 12.307 18.9499L13.8845 18.1611C14.0439 18.0822 14.1716 17.9497 14.2474 17.7873L18.98 7.53319C19.0273 7.42907 19.0525 7.31549 19.0525 7.20191V2.10804C19.3807 1.92664 19.9503 1.68055 20.6301 1.68055C21.4947 1.68055 23.7852 3.82916 23.7852 6.41318C23.7852 9.18969 22.274 13.1919 22.2598 13.2314C22.1683 13.4727 22.1998 13.7457 22.3465 13.9602C22.4948 14.1732 22.7378 14.3009 22.9965 14.3009H33.8516C35.1672 14.3009 36.2841 15.2427 36.3945 16.4448C36.4782 17.344 36.0459 18.1991 35.2714 18.6771C35.03 18.8253 34.8865 19.0935 34.8975 19.3791C34.9085 19.6646 35.0726 19.9201 35.325 20.0511C35.9923 20.3903 36.4056 21.0591 36.4056 21.7942C36.4056 22.7897 35.6531 23.6258 34.6561 23.7409Z" fill="black"/>
<path d="M11.9538 17.4565C11.5184 17.4565 11.165 17.8099 11.165 18.2453V32.4433C11.165 32.8787 11.5184 33.232 11.9538 33.232C12.3892 33.232 12.7426 32.8787 12.7426 32.4433V18.2453C12.7426 17.8099 12.3892 17.4565 11.9538 17.4565Z" fill="black"/>
</svg>
