<svg width="422" height="25" viewBox="0 0 422 25" fill="none" xmlns="http://www.w3.org/2000/svg">
<path d="M0.320312 19V1.11719H6.97656C8.75781 1.11719 10.1094 1.53906 11.0312 2.38281C11.9531 3.21094 12.4141 4.33594 12.4141 5.75781C12.4141 6.67969 12.1797 7.46875 11.7109 8.125C11.2578 8.78125 10.6719 9.27344 9.95312 9.60156C10.8125 9.86719 11.5469 10.3906 12.1562 11.1719C12.7656 11.9375 13.0703 12.8594 13.0703 13.9375C13.0703 15.3438 12.6094 16.5391 11.6875 17.5234C10.7656 18.5078 9.48438 19 7.84375 19H0.320312ZM2.59375 17.0547H7.35156C8.30469 17.0547 9.10156 16.7812 9.74219 16.2344C10.3984 15.6875 10.7266 14.9297 10.7266 13.9609C10.7266 13.0391 10.4141 12.2734 9.78906 11.6641C9.16406 11.0547 8.32031 10.75 7.25781 10.75H2.59375V17.0547ZM2.59375 8.85156H6.64844C7.63281 8.85156 8.44531 8.60938 9.08594 8.125C9.74219 7.625 10.0703 6.89062 10.0703 5.92188C10.0703 5.0625 9.80469 4.375 9.27344 3.85938C8.74219 3.32812 7.89844 3.0625 6.74219 3.0625H2.59375V8.85156ZM17.1963 12.4609C17.1963 10.4297 17.7509 8.78906 18.8603 7.53906C19.9697 6.28906 21.3916 5.66406 23.1259 5.66406C24.8603 5.66406 26.2431 6.28125 27.2744 7.51562C28.3213 8.75 28.8447 10.3281 28.8447 12.25C28.8447 12.5 28.8291 12.8438 28.7978 13.2812H19.4228C19.4228 14.4688 19.7588 15.4922 20.4306 16.3516C21.1181 17.1953 22.0556 17.6172 23.2431 17.6172C24.8369 17.6172 26.0009 16.9297 26.7353 15.5547L28.5869 16.1406C28.1806 17.0938 27.5166 17.8828 26.5947 18.5078C25.6884 19.1172 24.5634 19.4219 23.2197 19.4219C21.4228 19.4219 19.9697 18.7891 18.8603 17.5234C17.7509 16.2422 17.1963 14.5547 17.1963 12.4609ZM19.4697 11.6641H26.6181C26.6181 10.4922 26.3056 9.5 25.6806 8.6875C25.0556 7.875 24.2041 7.46875 23.1259 7.46875C22.0322 7.46875 21.1572 7.89062 20.5009 8.73438C19.8447 9.5625 19.5009 10.5391 19.4697 11.6641ZM32.7597 12.5547C32.7597 8.41406 33.7519 5.33594 35.7363 3.32031C37.5331 1.49219 40.1269 0.476562 43.5175 0.273438L43.8925 2.125C39.955 2.26562 37.3456 3.77344 36.0644 6.64844L35.8066 7.25781C36.1034 6.78906 36.5253 6.40625 37.0722 6.10938C37.6191 5.8125 38.2206 5.66406 38.8769 5.66406C40.58 5.66406 41.9394 6.32812 42.955 7.65625C43.9706 8.98438 44.4784 10.6172 44.4784 12.5547C44.4784 13.3672 44.3691 14.1562 44.1503 14.9219C43.9472 15.6875 43.6269 16.4219 43.1894 17.125C42.7675 17.8125 42.1581 18.3672 41.3613 18.7891C40.58 19.2109 39.6738 19.4219 38.6425 19.4219C37.6113 19.4219 36.6972 19.2188 35.9003 18.8125C35.1191 18.3906 34.5019 17.8359 34.0488 17.1484C33.6113 16.4609 33.2831 15.7344 33.0644 14.9688C32.8613 14.1875 32.7597 13.3828 32.7597 12.5547ZM35.0097 12.5547C35.0097 14.1328 35.3613 15.3672 36.0644 16.2578C36.7675 17.1328 37.6269 17.5703 38.6425 17.5703C39.6425 17.5703 40.4941 17.1328 41.1972 16.2578C41.9003 15.3672 42.2519 14.1328 42.2519 12.5547C42.2519 10.9453 41.9003 9.70312 41.1972 8.82812C40.4941 7.95312 39.6425 7.51562 38.6425 7.51562C37.6425 7.51562 36.7831 7.95312 36.0644 8.82812C35.3613 9.6875 35.0097 10.9297 35.0097 12.5547ZM49.2606 19V6.08594H51.4637V12.4375C51.4637 13.3594 51.4169 14.4609 51.3231 15.7422H51.4169L52.6591 13.75L57.6278 6.08594H59.9247V19H57.745V12.6016C57.745 11.3672 57.7919 10.2812 57.8856 9.34375H57.8387L56.7606 11.125L51.5809 19H49.2606ZM65.5272 19V6.08594H67.7303V11.4297H73.8709V6.08594H76.0506V19H73.8709V13.2812H67.7303V19H65.5272ZM83.0125 15.5781C83.0125 16.1406 83.2469 16.6172 83.7156 17.0078C84.1844 17.3984 84.8172 17.5938 85.6141 17.5938C86.6766 17.5938 87.575 17.25 88.3094 16.5625C89.0594 15.875 89.4344 14.9922 89.4344 13.9141V12.3203C88.8094 12.4766 87.7937 12.6641 86.3875 12.8828C84.1375 13.2578 83.0125 14.1562 83.0125 15.5781ZM80.8094 15.7656C80.8094 13.3438 82.6453 11.8516 86.3172 11.2891C87.9109 11.0391 88.95 10.8359 89.4344 10.6797V9.95312C89.4344 9.20312 89.1687 8.59375 88.6375 8.125C88.1219 7.65625 87.3875 7.42188 86.4344 7.42188C85.6844 7.42188 84.9578 7.60156 84.2547 7.96094C83.5672 8.30469 82.9891 8.76562 82.5203 9.34375L81.1375 8.17188C81.7781 7.40625 82.5594 6.79688 83.4812 6.34375C84.4031 5.89062 85.3719 5.66406 86.3875 5.66406C89.8719 5.66406 91.6141 7.38281 91.6141 10.8203V19H89.5047V17.0547C89.2391 17.6953 88.7312 18.25 87.9812 18.7188C87.2312 19.1875 86.3484 19.4219 85.3328 19.4219C83.9109 19.4219 82.8016 19.0859 82.0047 18.4141C81.2078 17.7266 80.8094 16.8438 80.8094 15.7656ZM99.3962 12.5312C99.3962 14.0469 99.6931 15.2656 100.287 16.1875C100.896 17.1094 101.74 17.5703 102.818 17.5703C103.834 17.5703 104.67 17.125 105.326 16.2344C105.998 15.3281 106.334 14.0938 106.334 12.5312C106.334 11.0469 106.013 9.84375 105.373 8.92188C104.748 7.98438 103.896 7.51562 102.818 7.51562C101.787 7.51562 100.959 7.98438 100.334 8.92188C99.7087 9.85938 99.3962 11.0625 99.3962 12.5312ZM97.2166 24.5078V6.08594H99.3259V8.19531C99.6853 7.44531 100.193 6.83594 100.849 6.36719C101.521 5.89844 102.279 5.66406 103.123 5.66406C104.701 5.66406 105.998 6.28906 107.013 7.53906C108.045 8.77344 108.56 10.4375 108.56 12.5312C108.56 14.7812 108.013 16.4922 106.92 17.6641C105.842 18.8359 104.576 19.4219 103.123 19.4219C102.201 19.4219 101.42 19.1953 100.779 18.7422C100.138 18.2734 99.6775 17.7031 99.3962 17.0312V24.5078H97.2166ZM120.422 12.5547C120.422 10.4922 120.953 8.82812 122.015 7.5625C123.078 6.29688 124.492 5.66406 126.257 5.66406C127.461 5.66406 128.476 6.01562 129.304 6.71875C130.148 7.42188 130.703 8.24219 130.968 9.17969L129.093 9.71875C128.875 9.10938 128.515 8.59375 128.015 8.17188C127.515 7.73438 126.937 7.51562 126.281 7.51562C125.172 7.51562 124.289 7.99219 123.632 8.94531C122.992 9.89844 122.672 11.1016 122.672 12.5547C122.672 14.1016 123.007 15.3281 123.679 16.2344C124.367 17.125 125.234 17.5703 126.281 17.5703C127 17.5703 127.64 17.3359 128.203 16.8672C128.781 16.3828 129.187 15.8281 129.422 15.2031L131.297 15.7656C130.984 16.75 130.367 17.6094 129.445 18.3438C128.539 19.0625 127.476 19.4219 126.257 19.4219C124.523 19.4219 123.117 18.8047 122.039 17.5703C120.961 16.3203 120.422 14.6484 120.422 12.5547ZM144.962 12.5547C144.962 14.1328 145.314 15.3672 146.017 16.2578C146.72 17.1328 147.58 17.5703 148.595 17.5703C149.595 17.5703 150.447 17.1328 151.15 16.2578C151.853 15.3672 152.205 14.1328 152.205 12.5547C152.205 10.9453 151.853 9.70312 151.15 8.82812C150.447 7.95312 149.595 7.51562 148.595 7.51562C147.595 7.51562 146.736 7.95312 146.017 8.82812C145.314 9.6875 144.962 10.9297 144.962 12.5547ZM142.712 12.5547C142.712 10.6016 143.22 8.96875 144.236 7.65625C145.252 6.32812 146.705 5.66406 148.595 5.66406C150.455 5.66406 151.892 6.32812 152.908 7.65625C153.939 8.96875 154.455 10.6016 154.455 12.5547C154.455 13.3672 154.345 14.1562 154.127 14.9219C153.923 15.6875 153.603 16.4219 153.166 17.125C152.744 17.8125 152.134 18.3672 151.337 18.7891C150.541 19.2109 149.627 19.4219 148.595 19.4219C147.564 19.4219 146.65 19.2188 145.853 18.8125C145.072 18.3906 144.455 17.8359 144.002 17.1484C143.564 16.4609 143.236 15.7344 143.017 14.9688C142.814 14.1875 142.712 13.3828 142.712 12.5547ZM157.901 7.9375V6.08594H168.354V7.9375H164.229V19H162.026V7.9375H157.901ZM172.597 19V6.08594H178.128C179.582 6.08594 180.683 6.41406 181.433 7.07031C182.183 7.72656 182.558 8.57031 182.558 9.60156C182.558 10.7266 182.003 11.5781 180.894 12.1562C181.535 12.4062 182.058 12.7891 182.464 13.3047C182.871 13.8203 183.074 14.4531 183.074 15.2031C183.074 16.25 182.683 17.1484 181.902 17.8984C181.121 18.6328 180.089 19 178.808 19H172.597ZM174.8 17.1719H178.457C179.16 17.1719 179.73 17.0078 180.167 16.6797C180.605 16.3359 180.824 15.8516 180.824 15.2266C180.824 14.6328 180.605 14.1484 180.167 13.7734C179.746 13.3984 179.16 13.2109 178.41 13.2109H174.8V17.1719ZM174.8 11.5234H177.941C178.66 11.5234 179.238 11.375 179.675 11.0781C180.113 10.7656 180.332 10.3047 180.332 9.69531C180.332 9.16406 180.144 8.73438 179.769 8.40625C179.394 8.0625 178.792 7.89062 177.964 7.89062H174.8V11.5234ZM187.036 12.4609C187.036 10.4297 187.59 8.78906 188.7 7.53906C189.809 6.28906 191.231 5.66406 192.965 5.66406C194.7 5.66406 196.083 6.28125 197.114 7.51562C198.161 8.75 198.684 10.3281 198.684 12.25C198.684 12.5 198.668 12.8438 198.637 13.2812H189.262C189.262 14.4688 189.598 15.4922 190.27 16.3516C190.958 17.1953 191.895 17.6172 193.083 17.6172C194.676 17.6172 195.84 16.9297 196.575 15.5547L198.426 16.1406C198.02 17.0938 197.356 17.8828 196.434 18.5078C195.528 19.1172 194.403 19.4219 193.059 19.4219C191.262 19.4219 189.809 18.7891 188.7 17.5234C187.59 16.2422 187.036 14.5547 187.036 12.4609ZM189.309 11.6641H196.458C196.458 10.4922 196.145 9.5 195.52 8.6875C194.895 7.875 194.043 7.46875 192.965 7.46875C191.872 7.46875 190.997 7.89062 190.34 8.73438C189.684 9.5625 189.34 10.5391 189.309 11.6641ZM202.107 7.9375V6.08594H212.56V7.9375H208.435V19H206.232V7.9375H202.107ZM218.163 15.5781C218.163 16.1406 218.397 16.6172 218.866 17.0078C219.334 17.3984 219.967 17.5938 220.764 17.5938C221.827 17.5938 222.725 17.25 223.459 16.5625C224.209 15.875 224.584 14.9922 224.584 13.9141V12.3203C223.959 12.4766 222.944 12.6641 221.538 12.8828C219.288 13.2578 218.163 14.1562 218.163 15.5781ZM215.959 15.7656C215.959 13.3438 217.795 11.8516 221.467 11.2891C223.061 11.0391 224.1 10.8359 224.584 10.6797V9.95312C224.584 9.20312 224.319 8.59375 223.788 8.125C223.272 7.65625 222.538 7.42188 221.584 7.42188C220.834 7.42188 220.108 7.60156 219.405 7.96094C218.717 8.30469 218.139 8.76562 217.67 9.34375L216.288 8.17188C216.928 7.40625 217.709 6.79688 218.631 6.34375C219.553 5.89062 220.522 5.66406 221.538 5.66406C225.022 5.66406 226.764 7.38281 226.764 10.8203V19H224.655V17.0547C224.389 17.6953 223.881 18.25 223.131 18.7188C222.381 19.1875 221.498 19.4219 220.483 19.4219C219.061 19.4219 217.952 19.0859 217.155 18.4141C216.358 17.7266 215.959 16.8438 215.959 15.7656ZM232.226 19V6.08594H234.57L237.382 12.1562C237.851 13.2031 238.327 14.2969 238.812 15.4375H238.859C239.702 13.5 240.179 12.4062 240.288 12.1562L243.077 6.08594H245.421V19H243.359V12.6484C243.359 12.1016 243.39 11.1562 243.452 9.8125H243.429L242.702 11.4297L239.609 18.1328H238.062L234.992 11.4766L234.242 9.83594H234.218C234.281 10.5703 234.312 11.5078 234.312 12.6484V19H232.226ZM251.024 19V6.08594H253.227V12.4375C253.227 13.3594 253.18 14.4609 253.086 15.7422H253.18L254.422 13.75L259.391 6.08594H261.688V19H259.508V12.6016C259.508 11.3672 259.555 10.2812 259.649 9.34375H259.602L258.524 11.125L253.344 19H251.024ZM275.19 19V6.08594H277.393V11.4297H283.533V6.08594H285.713V19H283.533V13.2812H277.393V19H275.19ZM292.675 15.5781C292.675 16.1406 292.909 16.6172 293.378 17.0078C293.847 17.3984 294.48 17.5938 295.277 17.5938C296.339 17.5938 297.237 17.25 297.972 16.5625C298.722 15.875 299.097 14.9922 299.097 13.9141V12.3203C298.472 12.4766 297.456 12.6641 296.05 12.8828C293.8 13.2578 292.675 14.1562 292.675 15.5781ZM290.472 15.7656C290.472 13.3438 292.308 11.8516 295.98 11.2891C297.573 11.0391 298.612 10.8359 299.097 10.6797V9.95312C299.097 9.20312 298.831 8.59375 298.3 8.125C297.784 7.65625 297.05 7.42188 296.097 7.42188C295.347 7.42188 294.62 7.60156 293.917 7.96094C293.23 8.30469 292.652 8.76562 292.183 9.34375L290.8 8.17188C291.441 7.40625 292.222 6.79688 293.144 6.34375C294.066 5.89062 295.034 5.66406 296.05 5.66406C299.534 5.66406 301.277 7.38281 301.277 10.8203V19H299.167V17.0547C298.902 17.6953 298.394 18.25 297.644 18.7188C296.894 19.1875 296.011 19.4219 294.995 19.4219C293.573 19.4219 292.464 19.0859 291.667 18.4141C290.87 17.7266 290.472 16.8438 290.472 15.7656ZM314.638 19V6.08594H320.169C321.622 6.08594 322.724 6.41406 323.474 7.07031C324.224 7.72656 324.599 8.57031 324.599 9.60156C324.599 10.7266 324.044 11.5781 322.935 12.1562C323.575 12.4062 324.099 12.7891 324.505 13.3047C324.911 13.8203 325.114 14.4531 325.114 15.2031C325.114 16.25 324.724 17.1484 323.943 17.8984C323.161 18.6328 322.13 19 320.849 19H314.638ZM316.841 17.1719H320.497C321.2 17.1719 321.771 17.0078 322.208 16.6797C322.646 16.3359 322.864 15.8516 322.864 15.2266C322.864 14.6328 322.646 14.1484 322.208 13.7734C321.786 13.3984 321.2 13.2109 320.45 13.2109H316.841V17.1719ZM316.841 11.5234H319.982C320.7 11.5234 321.278 11.375 321.716 11.0781C322.153 10.7656 322.372 10.3047 322.372 9.69531C322.372 9.16406 322.185 8.73438 321.81 8.40625C321.435 8.0625 320.833 7.89062 320.005 7.89062H316.841V11.5234ZM331.326 12.5547C331.326 14.1328 331.678 15.3672 332.381 16.2578C333.084 17.1328 333.943 17.5703 334.959 17.5703C335.959 17.5703 336.811 17.1328 337.514 16.2578C338.217 15.3672 338.568 14.1328 338.568 12.5547C338.568 10.9453 338.217 9.70312 337.514 8.82812C336.811 7.95312 335.959 7.51562 334.959 7.51562C333.959 7.51562 333.1 7.95312 332.381 8.82812C331.678 9.6875 331.326 10.9297 331.326 12.5547ZM329.076 12.5547C329.076 10.6016 329.584 8.96875 330.6 7.65625C331.615 6.32812 333.068 5.66406 334.959 5.66406C336.818 5.66406 338.256 6.32812 339.272 7.65625C340.303 8.96875 340.818 10.6016 340.818 12.5547C340.818 13.3672 340.709 14.1562 340.49 14.9219C340.287 15.6875 339.967 16.4219 339.529 17.125C339.108 17.8125 338.498 18.3672 337.701 18.7891C336.904 19.2109 335.99 19.4219 334.959 19.4219C333.928 19.4219 333.014 19.2188 332.217 18.8125C331.436 18.3906 330.818 17.8359 330.365 17.1484C329.928 16.4609 329.6 15.7344 329.381 14.9688C329.178 14.1875 329.076 13.3828 329.076 12.5547ZM345.577 19V6.08594H355.866V19H353.687V7.9375H347.78V19H345.577ZM363.789 12.5312C363.789 14.0469 364.086 15.2656 364.68 16.1875C365.289 17.1094 366.133 17.5703 367.211 17.5703C368.227 17.5703 369.062 17.125 369.719 16.2344C370.391 15.3281 370.727 14.0938 370.727 12.5312C370.727 11.0469 370.406 9.84375 369.766 8.92188C369.141 7.98438 368.289 7.51562 367.211 7.51562C366.18 7.51562 365.352 7.98438 364.727 8.92188C364.102 9.85938 363.789 11.0625 363.789 12.5312ZM361.609 24.5078V6.08594H363.719V8.19531C364.078 7.44531 364.586 6.83594 365.242 6.36719C365.914 5.89844 366.672 5.66406 367.516 5.66406C369.094 5.66406 370.391 6.28906 371.406 7.53906C372.438 8.77344 372.953 10.4375 372.953 12.5312C372.953 14.7812 372.406 16.4922 371.312 17.6641C370.234 18.8359 368.969 19.4219 367.516 19.4219C366.594 19.4219 365.812 19.1953 365.172 18.7422C364.531 18.2734 364.07 17.7031 363.789 17.0312V24.5078H361.609ZM379.165 12.5547C379.165 14.1328 379.517 15.3672 380.22 16.2578C380.923 17.1328 381.782 17.5703 382.798 17.5703C383.798 17.5703 384.649 17.1328 385.353 16.2578C386.056 15.3672 386.407 14.1328 386.407 12.5547C386.407 10.9453 386.056 9.70312 385.353 8.82812C384.649 7.95312 383.798 7.51562 382.798 7.51562C381.798 7.51562 380.938 7.95312 380.22 8.82812C379.517 9.6875 379.165 10.9297 379.165 12.5547ZM376.915 12.5547C376.915 10.6016 377.423 8.96875 378.438 7.65625C379.454 6.32812 380.907 5.66406 382.798 5.66406C384.657 5.66406 386.095 6.32812 387.11 7.65625C388.142 8.96875 388.657 10.6016 388.657 12.5547C388.657 13.3672 388.548 14.1562 388.329 14.9219C388.126 15.6875 387.806 16.4219 387.368 17.125C386.946 17.8125 386.337 18.3672 385.54 18.7891C384.743 19.2109 383.829 19.4219 382.798 19.4219C381.767 19.4219 380.853 19.2188 380.056 18.8125C379.274 18.3906 378.657 17.8359 378.204 17.1484C377.767 16.4609 377.438 15.7344 377.22 14.9688C377.017 14.1875 376.915 13.3828 376.915 12.5547ZM392.596 12.5547C392.596 10.4922 393.127 8.82812 394.189 7.5625C395.252 6.29688 396.666 5.66406 398.432 5.66406C399.635 5.66406 400.65 6.01562 401.478 6.71875C402.322 7.42188 402.877 8.24219 403.142 9.17969L401.267 9.71875C401.049 9.10938 400.689 8.59375 400.189 8.17188C399.689 7.73438 399.111 7.51562 398.455 7.51562C397.346 7.51562 396.463 7.99219 395.807 8.94531C395.166 9.89844 394.846 11.1016 394.846 12.5547C394.846 14.1016 395.182 15.3281 395.853 16.2344C396.541 17.125 397.408 17.5703 398.455 17.5703C399.174 17.5703 399.814 17.3359 400.377 16.8672C400.955 16.3828 401.361 15.8281 401.596 15.2031L403.471 15.7656C403.158 16.75 402.541 17.6094 401.619 18.3438C400.713 19.0625 399.65 19.4219 398.432 19.4219C396.697 19.4219 395.291 18.8047 394.213 17.5703C393.135 16.3203 392.596 14.6484 392.596 12.5547ZM419.268 19V6.08594H421.448V19H419.268ZM407.807 19V6.08594H410.034V11.2422H412.823C414.386 11.2422 415.55 11.5859 416.315 12.2734C417.097 12.9453 417.487 13.9062 417.487 15.1562C417.487 16.2812 417.104 17.2031 416.339 17.9219C415.589 18.6406 414.495 19 413.057 19H407.807ZM410.034 17.1719H412.893C414.472 17.1719 415.261 16.4922 415.261 15.1328C415.261 13.7734 414.456 13.0938 412.847 13.0938H410.034V17.1719Z" fill="black"/>
</svg>
