<svg width="42" height="43" viewBox="0 0 42 43" fill="none" xmlns="http://www.w3.org/2000/svg">
<circle cx="21.1091" cy="21.6232" r="14" transform="rotate(145 21.1091 21.6232)" stroke="#B1E1FB" stroke-width="2"/>
<path d="M28.5617 17.9341C28.6274 18.0075 28.7329 18.2275 28.6297 18.521L28.1235 18.7779L28.1185 18.3421L27.4635 18.2639L28.1711 17.8661L28.5617 17.9341Z" fill="#B1E1FB"/>
<path d="M26.8853 18.0505L27.6293 17.6435L27.4688 17.4142L26.5599 17.953L26.8853 18.0505Z" fill="#B1E1FB"/>
<path d="M28.5617 17.9341C28.6274 18.0075 28.7329 18.2275 28.6297 18.521L28.1235 18.7779L28.1185 18.3421L27.4635 18.2639L28.1711 17.8661L28.5617 17.9341Z" stroke="#B1E1FB" stroke-width="2"/>
<path d="M26.8853 18.0505L27.6293 17.6435L27.4688 17.4142L26.5599 17.953L26.8853 18.0505Z" stroke="#B1E1FB" stroke-width="2"/>
</svg>
